<mxfile host="app.diagrams.net" agent="Mozilla/5.0 (Macintosh; Intel Mac OS X 10_15_7) AppleWebKit/537.36 (KHTML, like Gecko) Chrome/131.0.0.0 Safari/537.36" version="24.9.1">
  <diagram name="Strona-1" id="M9sgqWqsIqjeziERb9_s">
    <mxGraphModel dx="2765" dy="1572" grid="1" gridSize="10" guides="1" tooltips="1" connect="1" arrows="1" fold="1" page="1" pageScale="1" pageWidth="1654" pageHeight="1169" math="0" shadow="0">
      <root>
        <mxCell id="0" />
        <mxCell id="1" parent="0" />
        <mxCell id="gNsDPr1be6KkHbp5NU5g-20" value="" style="group" vertex="1" connectable="0" parent="1">
          <mxGeometry x="40" y="40" width="240" height="240" as="geometry" />
        </mxCell>
        <mxCell id="gNsDPr1be6KkHbp5NU5g-5" value="" style="rounded=0;whiteSpace=wrap;html=1;fillColor=none;" vertex="1" parent="gNsDPr1be6KkHbp5NU5g-20">
          <mxGeometry width="240" height="240" as="geometry" />
        </mxCell>
        <mxCell id="gNsDPr1be6KkHbp5NU5g-6" value="" style="endArrow=classic;html=1;rounded=0;exitX=0;exitY=0.5;exitDx=0;exitDy=0;entryX=1;entryY=0.5;entryDx=0;entryDy=0;" edge="1" parent="gNsDPr1be6KkHbp5NU5g-20" source="gNsDPr1be6KkHbp5NU5g-5" target="gNsDPr1be6KkHbp5NU5g-5">
          <mxGeometry width="50" height="50" relative="1" as="geometry">
            <mxPoint x="890" y="560" as="sourcePoint" />
            <mxPoint x="940" y="510" as="targetPoint" />
          </mxGeometry>
        </mxCell>
        <mxCell id="gNsDPr1be6KkHbp5NU5g-18" value="x" style="edgeLabel;html=1;align=center;verticalAlign=middle;resizable=0;points=[];" vertex="1" connectable="0" parent="gNsDPr1be6KkHbp5NU5g-6">
          <mxGeometry x="0.5192" y="1" relative="1" as="geometry">
            <mxPoint as="offset" />
          </mxGeometry>
        </mxCell>
        <mxCell id="gNsDPr1be6KkHbp5NU5g-7" value="" style="endArrow=classic;html=1;rounded=0;entryX=0.5;entryY=0;entryDx=0;entryDy=0;exitX=0.5;exitY=1;exitDx=0;exitDy=0;" edge="1" parent="gNsDPr1be6KkHbp5NU5g-20" source="gNsDPr1be6KkHbp5NU5g-5" target="gNsDPr1be6KkHbp5NU5g-5">
          <mxGeometry width="50" height="50" relative="1" as="geometry">
            <mxPoint x="140" y="330" as="sourcePoint" />
            <mxPoint x="340" y="280" as="targetPoint" />
          </mxGeometry>
        </mxCell>
        <mxCell id="gNsDPr1be6KkHbp5NU5g-19" value="y" style="edgeLabel;html=1;align=center;verticalAlign=middle;resizable=0;points=[];" vertex="1" connectable="0" parent="gNsDPr1be6KkHbp5NU5g-7">
          <mxGeometry x="0.5003" y="-1" relative="1" as="geometry">
            <mxPoint as="offset" />
          </mxGeometry>
        </mxCell>
        <mxCell id="gNsDPr1be6KkHbp5NU5g-9" value="" style="endArrow=none;dashed=1;html=1;rounded=0;exitX=0.163;exitY=0.992;exitDx=0;exitDy=0;exitPerimeter=0;strokeWidth=1;opacity=10;" edge="1" parent="gNsDPr1be6KkHbp5NU5g-20">
          <mxGeometry width="50" height="50" relative="1" as="geometry">
            <mxPoint x="40.120000000000005" y="238.08000000000004" as="sourcePoint" />
            <mxPoint x="40" as="targetPoint" />
          </mxGeometry>
        </mxCell>
        <mxCell id="gNsDPr1be6KkHbp5NU5g-11" value="" style="endArrow=none;dashed=1;html=1;rounded=0;exitX=0.163;exitY=0.992;exitDx=0;exitDy=0;exitPerimeter=0;strokeWidth=1;opacity=10;" edge="1" parent="gNsDPr1be6KkHbp5NU5g-20">
          <mxGeometry width="50" height="50" relative="1" as="geometry">
            <mxPoint x="80.12" y="238.08000000000004" as="sourcePoint" />
            <mxPoint x="80" as="targetPoint" />
          </mxGeometry>
        </mxCell>
        <mxCell id="gNsDPr1be6KkHbp5NU5g-12" value="" style="endArrow=none;dashed=1;html=1;rounded=0;exitX=0.163;exitY=0.992;exitDx=0;exitDy=0;exitPerimeter=0;strokeWidth=1;opacity=10;" edge="1" parent="gNsDPr1be6KkHbp5NU5g-20">
          <mxGeometry width="50" height="50" relative="1" as="geometry">
            <mxPoint x="160.12" y="238.08000000000004" as="sourcePoint" />
            <mxPoint x="160" as="targetPoint" />
          </mxGeometry>
        </mxCell>
        <mxCell id="gNsDPr1be6KkHbp5NU5g-13" value="" style="endArrow=none;dashed=1;html=1;rounded=0;exitX=0.163;exitY=0.992;exitDx=0;exitDy=0;exitPerimeter=0;strokeWidth=1;opacity=10;" edge="1" parent="gNsDPr1be6KkHbp5NU5g-20">
          <mxGeometry width="50" height="50" relative="1" as="geometry">
            <mxPoint x="200.12" y="238.08000000000004" as="sourcePoint" />
            <mxPoint x="200" as="targetPoint" />
          </mxGeometry>
        </mxCell>
        <mxCell id="gNsDPr1be6KkHbp5NU5g-14" value="" style="endArrow=none;dashed=1;html=1;rounded=0;strokeWidth=1;endSize=6;jumpSize=6;opacity=10;" edge="1" parent="gNsDPr1be6KkHbp5NU5g-20">
          <mxGeometry width="50" height="50" relative="1" as="geometry">
            <mxPoint y="40" as="sourcePoint" />
            <mxPoint x="240" y="40" as="targetPoint" />
          </mxGeometry>
        </mxCell>
        <mxCell id="gNsDPr1be6KkHbp5NU5g-15" value="" style="endArrow=none;dashed=1;html=1;rounded=0;strokeWidth=1;endSize=6;jumpSize=6;opacity=10;" edge="1" parent="gNsDPr1be6KkHbp5NU5g-20">
          <mxGeometry width="50" height="50" relative="1" as="geometry">
            <mxPoint y="80" as="sourcePoint" />
            <mxPoint x="240" y="80" as="targetPoint" />
          </mxGeometry>
        </mxCell>
        <mxCell id="gNsDPr1be6KkHbp5NU5g-16" value="" style="endArrow=none;dashed=1;html=1;rounded=0;strokeWidth=1;endSize=6;jumpSize=6;opacity=10;" edge="1" parent="gNsDPr1be6KkHbp5NU5g-20">
          <mxGeometry width="50" height="50" relative="1" as="geometry">
            <mxPoint y="160" as="sourcePoint" />
            <mxPoint x="240" y="160" as="targetPoint" />
          </mxGeometry>
        </mxCell>
        <mxCell id="gNsDPr1be6KkHbp5NU5g-17" value="" style="endArrow=none;dashed=1;html=1;rounded=0;strokeWidth=1;endSize=6;jumpSize=6;opacity=10;" edge="1" parent="gNsDPr1be6KkHbp5NU5g-20">
          <mxGeometry width="50" height="50" relative="1" as="geometry">
            <mxPoint y="200" as="sourcePoint" />
            <mxPoint x="240" y="200" as="targetPoint" />
          </mxGeometry>
        </mxCell>
        <mxCell id="gNsDPr1be6KkHbp5NU5g-31" value="" style="group" vertex="1" connectable="0" parent="1">
          <mxGeometry x="360" y="40" width="80" height="80" as="geometry" />
        </mxCell>
        <mxCell id="gNsDPr1be6KkHbp5NU5g-28" value="" style="endArrow=classic;html=1;rounded=0;strokeColor=#0000FF;" edge="1" parent="gNsDPr1be6KkHbp5NU5g-31">
          <mxGeometry width="50" height="50" relative="1" as="geometry">
            <mxPoint x="40" y="39.870000000000005" as="sourcePoint" />
            <mxPoint x="60" y="39.870000000000005" as="targetPoint" />
          </mxGeometry>
        </mxCell>
        <mxCell id="gNsDPr1be6KkHbp5NU5g-24" value="" style="shape=waypoint;sketch=0;fillStyle=solid;size=6;pointerEvents=1;points=[];fillColor=none;resizable=0;rotatable=0;perimeter=centerPerimeter;snapToPoint=1;strokeColor=#0000FF;rotation=0;" vertex="1" parent="gNsDPr1be6KkHbp5NU5g-31">
          <mxGeometry x="30" y="30" width="20" height="20" as="geometry" />
        </mxCell>
        <mxCell id="gNsDPr1be6KkHbp5NU5g-1" value="" style="ellipse;whiteSpace=wrap;html=1;fillColor=none;perimeterSpacing=1;strokeWidth=1;strokeColor=#0000FF;rotation=0;" vertex="1" parent="gNsDPr1be6KkHbp5NU5g-31">
          <mxGeometry width="80" height="80" as="geometry" />
        </mxCell>
        <mxCell id="gNsDPr1be6KkHbp5NU5g-140" value="" style="group" vertex="1" connectable="0" parent="1">
          <mxGeometry x="480" y="40" width="80" height="80" as="geometry" />
        </mxCell>
        <mxCell id="gNsDPr1be6KkHbp5NU5g-137" value="" style="endArrow=classic;html=1;rounded=0;strokeColor=#0000FF;" edge="1" parent="gNsDPr1be6KkHbp5NU5g-140">
          <mxGeometry width="50" height="50" relative="1" as="geometry">
            <mxPoint x="39.889999999999986" y="40" as="sourcePoint" />
            <mxPoint x="39.889999999999986" y="20" as="targetPoint" />
          </mxGeometry>
        </mxCell>
        <mxCell id="gNsDPr1be6KkHbp5NU5g-138" value="" style="shape=waypoint;sketch=0;fillStyle=solid;size=6;pointerEvents=1;points=[];fillColor=none;resizable=0;rotatable=0;perimeter=centerPerimeter;snapToPoint=1;strokeColor=#0000FF;rotation=0;" vertex="1" parent="gNsDPr1be6KkHbp5NU5g-140">
          <mxGeometry x="30" y="30" width="20" height="20" as="geometry" />
        </mxCell>
        <mxCell id="gNsDPr1be6KkHbp5NU5g-139" value="" style="ellipse;whiteSpace=wrap;html=1;fillColor=none;perimeterSpacing=1;strokeWidth=1;strokeColor=#0000FF;rotation=0;align=left;" vertex="1" parent="gNsDPr1be6KkHbp5NU5g-140">
          <mxGeometry width="80" height="80" as="geometry" />
        </mxCell>
        <mxCell id="gNsDPr1be6KkHbp5NU5g-158" value="" style="group" vertex="1" connectable="0" parent="1">
          <mxGeometry x="360" y="160" width="80" height="80" as="geometry" />
        </mxCell>
        <mxCell id="gNsDPr1be6KkHbp5NU5g-154" value="" style="endArrow=classic;html=1;rounded=0;strokeColor=#0000FF;" edge="1" parent="gNsDPr1be6KkHbp5NU5g-158">
          <mxGeometry width="50" height="50" relative="1" as="geometry">
            <mxPoint x="40" y="39.860000000000014" as="sourcePoint" />
            <mxPoint x="20" y="39.860000000000014" as="targetPoint" />
          </mxGeometry>
        </mxCell>
        <mxCell id="gNsDPr1be6KkHbp5NU5g-155" value="" style="shape=waypoint;sketch=0;fillStyle=solid;size=6;pointerEvents=1;points=[];fillColor=none;resizable=0;rotatable=0;perimeter=centerPerimeter;snapToPoint=1;strokeColor=#0000FF;rotation=0;" vertex="1" parent="gNsDPr1be6KkHbp5NU5g-158">
          <mxGeometry x="30" y="30" width="20" height="20" as="geometry" />
        </mxCell>
        <mxCell id="gNsDPr1be6KkHbp5NU5g-156" value="" style="ellipse;whiteSpace=wrap;html=1;fillColor=none;perimeterSpacing=1;strokeWidth=1;strokeColor=#0000FF;rotation=0;" vertex="1" parent="gNsDPr1be6KkHbp5NU5g-158">
          <mxGeometry width="80" height="80" as="geometry" />
        </mxCell>
        <mxCell id="gNsDPr1be6KkHbp5NU5g-213" value="" style="group" vertex="1" connectable="0" parent="1">
          <mxGeometry x="480" y="160" width="80" height="80" as="geometry" />
        </mxCell>
        <mxCell id="gNsDPr1be6KkHbp5NU5g-209" value="" style="endArrow=classic;html=1;rounded=0;strokeColor=#0000FF;" edge="1" parent="gNsDPr1be6KkHbp5NU5g-213">
          <mxGeometry width="50" height="50" relative="1" as="geometry">
            <mxPoint x="39.85000000000002" y="40" as="sourcePoint" />
            <mxPoint x="40" y="60" as="targetPoint" />
          </mxGeometry>
        </mxCell>
        <mxCell id="gNsDPr1be6KkHbp5NU5g-210" value="" style="shape=waypoint;sketch=0;fillStyle=solid;size=6;pointerEvents=1;points=[];fillColor=none;resizable=0;rotatable=0;perimeter=centerPerimeter;snapToPoint=1;strokeColor=#0000FF;rotation=0;" vertex="1" parent="gNsDPr1be6KkHbp5NU5g-213">
          <mxGeometry x="30" y="30" width="20" height="20" as="geometry" />
        </mxCell>
        <mxCell id="gNsDPr1be6KkHbp5NU5g-211" value="" style="ellipse;whiteSpace=wrap;html=1;fillColor=none;perimeterSpacing=1;strokeWidth=1;strokeColor=#0000FF;rotation=0;align=left;" vertex="1" parent="gNsDPr1be6KkHbp5NU5g-213">
          <mxGeometry width="80" height="80" as="geometry" />
        </mxCell>
        <mxCell id="gNsDPr1be6KkHbp5NU5g-212" style="edgeStyle=orthogonalEdgeStyle;rounded=0;orthogonalLoop=1;jettySize=auto;html=1;entryX=1;entryY=0;entryDx=0;entryDy=0;entryPerimeter=0;" edge="1" parent="gNsDPr1be6KkHbp5NU5g-213" source="gNsDPr1be6KkHbp5NU5g-210" target="gNsDPr1be6KkHbp5NU5g-210">
          <mxGeometry relative="1" as="geometry" />
        </mxCell>
        <mxCell id="gNsDPr1be6KkHbp5NU5g-229" value="" style="group" vertex="1" connectable="0" parent="1">
          <mxGeometry x="40" y="1480" width="240" height="240" as="geometry" />
        </mxCell>
        <mxCell id="gNsDPr1be6KkHbp5NU5g-230" value="" style="rounded=0;whiteSpace=wrap;html=1;fillColor=none;" vertex="1" parent="gNsDPr1be6KkHbp5NU5g-229">
          <mxGeometry width="240" height="240" as="geometry" />
        </mxCell>
        <mxCell id="gNsDPr1be6KkHbp5NU5g-231" value="" style="endArrow=classic;html=1;rounded=0;exitX=0;exitY=0.5;exitDx=0;exitDy=0;entryX=1;entryY=0.5;entryDx=0;entryDy=0;" edge="1" parent="gNsDPr1be6KkHbp5NU5g-229" source="gNsDPr1be6KkHbp5NU5g-230" target="gNsDPr1be6KkHbp5NU5g-230">
          <mxGeometry width="50" height="50" relative="1" as="geometry">
            <mxPoint x="890" y="560" as="sourcePoint" />
            <mxPoint x="940" y="510" as="targetPoint" />
          </mxGeometry>
        </mxCell>
        <mxCell id="gNsDPr1be6KkHbp5NU5g-232" value="&lt;div style=&quot;&quot;&gt;x&lt;/div&gt;" style="edgeLabel;html=1;align=center;verticalAlign=middle;resizable=0;points=[];" vertex="1" connectable="0" parent="gNsDPr1be6KkHbp5NU5g-231">
          <mxGeometry x="0.5192" y="1" relative="1" as="geometry">
            <mxPoint as="offset" />
          </mxGeometry>
        </mxCell>
        <mxCell id="gNsDPr1be6KkHbp5NU5g-233" value="" style="endArrow=classic;html=1;rounded=0;entryX=0.5;entryY=0;entryDx=0;entryDy=0;exitX=0.5;exitY=1;exitDx=0;exitDy=0;" edge="1" parent="gNsDPr1be6KkHbp5NU5g-229" source="gNsDPr1be6KkHbp5NU5g-230" target="gNsDPr1be6KkHbp5NU5g-230">
          <mxGeometry width="50" height="50" relative="1" as="geometry">
            <mxPoint x="140" y="330" as="sourcePoint" />
            <mxPoint x="340" y="280" as="targetPoint" />
          </mxGeometry>
        </mxCell>
        <mxCell id="gNsDPr1be6KkHbp5NU5g-234" value="y" style="edgeLabel;html=1;align=center;verticalAlign=middle;resizable=0;points=[];" vertex="1" connectable="0" parent="gNsDPr1be6KkHbp5NU5g-233">
          <mxGeometry x="0.5003" y="-1" relative="1" as="geometry">
            <mxPoint as="offset" />
          </mxGeometry>
        </mxCell>
        <mxCell id="gNsDPr1be6KkHbp5NU5g-235" value="" style="endArrow=none;dashed=1;html=1;rounded=0;exitX=0.163;exitY=0.992;exitDx=0;exitDy=0;exitPerimeter=0;strokeWidth=1;opacity=10;" edge="1" parent="gNsDPr1be6KkHbp5NU5g-229">
          <mxGeometry width="50" height="50" relative="1" as="geometry">
            <mxPoint x="40.120000000000005" y="238.08000000000004" as="sourcePoint" />
            <mxPoint x="40" as="targetPoint" />
          </mxGeometry>
        </mxCell>
        <mxCell id="gNsDPr1be6KkHbp5NU5g-236" value="" style="endArrow=none;dashed=1;html=1;rounded=0;exitX=0.163;exitY=0.992;exitDx=0;exitDy=0;exitPerimeter=0;strokeWidth=1;opacity=10;" edge="1" parent="gNsDPr1be6KkHbp5NU5g-229">
          <mxGeometry width="50" height="50" relative="1" as="geometry">
            <mxPoint x="80.12" y="238.08000000000004" as="sourcePoint" />
            <mxPoint x="80" as="targetPoint" />
          </mxGeometry>
        </mxCell>
        <mxCell id="gNsDPr1be6KkHbp5NU5g-237" value="" style="endArrow=none;dashed=1;html=1;rounded=0;exitX=0.163;exitY=0.992;exitDx=0;exitDy=0;exitPerimeter=0;strokeWidth=1;opacity=10;" edge="1" parent="gNsDPr1be6KkHbp5NU5g-229">
          <mxGeometry width="50" height="50" relative="1" as="geometry">
            <mxPoint x="160.12" y="238.08000000000004" as="sourcePoint" />
            <mxPoint x="160" as="targetPoint" />
          </mxGeometry>
        </mxCell>
        <mxCell id="gNsDPr1be6KkHbp5NU5g-238" value="" style="endArrow=none;dashed=1;html=1;rounded=0;exitX=0.163;exitY=0.992;exitDx=0;exitDy=0;exitPerimeter=0;strokeWidth=1;opacity=10;" edge="1" parent="gNsDPr1be6KkHbp5NU5g-229">
          <mxGeometry width="50" height="50" relative="1" as="geometry">
            <mxPoint x="200.12" y="238.08000000000004" as="sourcePoint" />
            <mxPoint x="200" as="targetPoint" />
          </mxGeometry>
        </mxCell>
        <mxCell id="gNsDPr1be6KkHbp5NU5g-239" value="" style="endArrow=none;dashed=1;html=1;rounded=0;strokeWidth=1;endSize=6;jumpSize=6;opacity=10;" edge="1" parent="gNsDPr1be6KkHbp5NU5g-229">
          <mxGeometry width="50" height="50" relative="1" as="geometry">
            <mxPoint y="40" as="sourcePoint" />
            <mxPoint x="240" y="40" as="targetPoint" />
          </mxGeometry>
        </mxCell>
        <mxCell id="gNsDPr1be6KkHbp5NU5g-240" value="" style="endArrow=none;dashed=1;html=1;rounded=0;strokeWidth=1;endSize=6;jumpSize=6;opacity=10;" edge="1" parent="gNsDPr1be6KkHbp5NU5g-229">
          <mxGeometry width="50" height="50" relative="1" as="geometry">
            <mxPoint y="80" as="sourcePoint" />
            <mxPoint x="240" y="80" as="targetPoint" />
          </mxGeometry>
        </mxCell>
        <mxCell id="gNsDPr1be6KkHbp5NU5g-241" value="" style="endArrow=none;dashed=1;html=1;rounded=0;strokeWidth=1;endSize=6;jumpSize=6;opacity=10;" edge="1" parent="gNsDPr1be6KkHbp5NU5g-229">
          <mxGeometry width="50" height="50" relative="1" as="geometry">
            <mxPoint y="160" as="sourcePoint" />
            <mxPoint x="240" y="160" as="targetPoint" />
          </mxGeometry>
        </mxCell>
        <mxCell id="gNsDPr1be6KkHbp5NU5g-242" value="" style="endArrow=none;dashed=1;html=1;rounded=0;strokeWidth=1;endSize=6;jumpSize=6;opacity=10;" edge="1" parent="gNsDPr1be6KkHbp5NU5g-229">
          <mxGeometry width="50" height="50" relative="1" as="geometry">
            <mxPoint y="200" as="sourcePoint" />
            <mxPoint x="240" y="200" as="targetPoint" />
          </mxGeometry>
        </mxCell>
        <mxCell id="gNsDPr1be6KkHbp5NU5g-243" value="" style="shape=waypoint;sketch=0;fillStyle=solid;size=6;pointerEvents=1;points=[];fillColor=none;resizable=0;rotatable=0;perimeter=centerPerimeter;snapToPoint=1;strokeColor=#0000FF;rotation=0;" vertex="1" parent="gNsDPr1be6KkHbp5NU5g-229">
          <mxGeometry x="110" y="110" width="20" height="20" as="geometry" />
        </mxCell>
        <mxCell id="gNsDPr1be6KkHbp5NU5g-244" value="&lt;div style=&quot;&quot;&gt;&lt;font style=&quot;font-size: 20px;&quot;&gt;4&lt;/font&gt;&lt;/div&gt;" style="ellipse;whiteSpace=wrap;html=1;fillColor=none;perimeterSpacing=1;strokeWidth=1;strokeColor=#0000FF;rotation=0;align=left;" vertex="1" parent="gNsDPr1be6KkHbp5NU5g-229">
          <mxGeometry x="80" y="80" width="80" height="80" as="geometry" />
        </mxCell>
        <mxCell id="gNsDPr1be6KkHbp5NU5g-245" value="" style="group" vertex="1" connectable="0" parent="1">
          <mxGeometry x="320" y="1480" width="240" height="240" as="geometry" />
        </mxCell>
        <mxCell id="gNsDPr1be6KkHbp5NU5g-246" value="" style="rounded=0;whiteSpace=wrap;html=1;fillColor=none;" vertex="1" parent="gNsDPr1be6KkHbp5NU5g-245">
          <mxGeometry width="240" height="240" as="geometry" />
        </mxCell>
        <mxCell id="gNsDPr1be6KkHbp5NU5g-247" value="" style="endArrow=classic;html=1;rounded=0;exitX=0;exitY=0.5;exitDx=0;exitDy=0;entryX=1;entryY=0.5;entryDx=0;entryDy=0;" edge="1" parent="gNsDPr1be6KkHbp5NU5g-245" source="gNsDPr1be6KkHbp5NU5g-246" target="gNsDPr1be6KkHbp5NU5g-246">
          <mxGeometry width="50" height="50" relative="1" as="geometry">
            <mxPoint x="890" y="560" as="sourcePoint" />
            <mxPoint x="940" y="510" as="targetPoint" />
          </mxGeometry>
        </mxCell>
        <mxCell id="gNsDPr1be6KkHbp5NU5g-248" value="x" style="edgeLabel;html=1;align=center;verticalAlign=middle;resizable=0;points=[];" vertex="1" connectable="0" parent="gNsDPr1be6KkHbp5NU5g-247">
          <mxGeometry x="0.5192" y="1" relative="1" as="geometry">
            <mxPoint as="offset" />
          </mxGeometry>
        </mxCell>
        <mxCell id="gNsDPr1be6KkHbp5NU5g-249" value="" style="endArrow=classic;html=1;rounded=0;entryX=0.5;entryY=0;entryDx=0;entryDy=0;exitX=0.5;exitY=1;exitDx=0;exitDy=0;" edge="1" parent="gNsDPr1be6KkHbp5NU5g-245" source="gNsDPr1be6KkHbp5NU5g-246" target="gNsDPr1be6KkHbp5NU5g-246">
          <mxGeometry width="50" height="50" relative="1" as="geometry">
            <mxPoint x="140" y="330" as="sourcePoint" />
            <mxPoint x="340" y="280" as="targetPoint" />
          </mxGeometry>
        </mxCell>
        <mxCell id="gNsDPr1be6KkHbp5NU5g-250" value="y" style="edgeLabel;html=1;align=center;verticalAlign=middle;resizable=0;points=[];" vertex="1" connectable="0" parent="gNsDPr1be6KkHbp5NU5g-249">
          <mxGeometry x="0.5003" y="-1" relative="1" as="geometry">
            <mxPoint as="offset" />
          </mxGeometry>
        </mxCell>
        <mxCell id="gNsDPr1be6KkHbp5NU5g-251" value="" style="endArrow=none;dashed=1;html=1;rounded=0;exitX=0.163;exitY=0.992;exitDx=0;exitDy=0;exitPerimeter=0;strokeWidth=1;opacity=10;" edge="1" parent="gNsDPr1be6KkHbp5NU5g-245">
          <mxGeometry width="50" height="50" relative="1" as="geometry">
            <mxPoint x="40.120000000000005" y="238.08000000000004" as="sourcePoint" />
            <mxPoint x="40" as="targetPoint" />
          </mxGeometry>
        </mxCell>
        <mxCell id="gNsDPr1be6KkHbp5NU5g-252" value="" style="endArrow=none;dashed=1;html=1;rounded=0;exitX=0.163;exitY=0.992;exitDx=0;exitDy=0;exitPerimeter=0;strokeWidth=1;opacity=10;" edge="1" parent="gNsDPr1be6KkHbp5NU5g-245">
          <mxGeometry width="50" height="50" relative="1" as="geometry">
            <mxPoint x="80.12" y="238.08000000000004" as="sourcePoint" />
            <mxPoint x="80" as="targetPoint" />
          </mxGeometry>
        </mxCell>
        <mxCell id="gNsDPr1be6KkHbp5NU5g-253" value="" style="endArrow=none;dashed=1;html=1;rounded=0;exitX=0.163;exitY=0.992;exitDx=0;exitDy=0;exitPerimeter=0;strokeWidth=1;opacity=10;" edge="1" parent="gNsDPr1be6KkHbp5NU5g-245">
          <mxGeometry width="50" height="50" relative="1" as="geometry">
            <mxPoint x="160.12" y="238.08000000000004" as="sourcePoint" />
            <mxPoint x="160" as="targetPoint" />
          </mxGeometry>
        </mxCell>
        <mxCell id="gNsDPr1be6KkHbp5NU5g-254" value="" style="endArrow=none;dashed=1;html=1;rounded=0;exitX=0.163;exitY=0.992;exitDx=0;exitDy=0;exitPerimeter=0;strokeWidth=1;opacity=10;" edge="1" parent="gNsDPr1be6KkHbp5NU5g-245">
          <mxGeometry width="50" height="50" relative="1" as="geometry">
            <mxPoint x="200.12" y="238.08000000000004" as="sourcePoint" />
            <mxPoint x="200" as="targetPoint" />
          </mxGeometry>
        </mxCell>
        <mxCell id="gNsDPr1be6KkHbp5NU5g-255" value="" style="endArrow=none;dashed=1;html=1;rounded=0;strokeWidth=1;endSize=6;jumpSize=6;opacity=10;" edge="1" parent="gNsDPr1be6KkHbp5NU5g-245">
          <mxGeometry width="50" height="50" relative="1" as="geometry">
            <mxPoint y="40" as="sourcePoint" />
            <mxPoint x="240" y="40" as="targetPoint" />
          </mxGeometry>
        </mxCell>
        <mxCell id="gNsDPr1be6KkHbp5NU5g-256" value="" style="endArrow=none;dashed=1;html=1;rounded=0;strokeWidth=1;endSize=6;jumpSize=6;opacity=10;" edge="1" parent="gNsDPr1be6KkHbp5NU5g-245">
          <mxGeometry width="50" height="50" relative="1" as="geometry">
            <mxPoint y="80" as="sourcePoint" />
            <mxPoint x="240" y="80" as="targetPoint" />
          </mxGeometry>
        </mxCell>
        <mxCell id="gNsDPr1be6KkHbp5NU5g-257" value="" style="endArrow=none;dashed=1;html=1;rounded=0;strokeWidth=1;endSize=6;jumpSize=6;opacity=10;" edge="1" parent="gNsDPr1be6KkHbp5NU5g-245">
          <mxGeometry width="50" height="50" relative="1" as="geometry">
            <mxPoint y="160" as="sourcePoint" />
            <mxPoint x="240" y="160" as="targetPoint" />
          </mxGeometry>
        </mxCell>
        <mxCell id="gNsDPr1be6KkHbp5NU5g-258" value="" style="endArrow=none;dashed=1;html=1;rounded=0;strokeWidth=1;endSize=6;jumpSize=6;opacity=10;" edge="1" parent="gNsDPr1be6KkHbp5NU5g-245">
          <mxGeometry width="50" height="50" relative="1" as="geometry">
            <mxPoint y="200" as="sourcePoint" />
            <mxPoint x="240" y="200" as="targetPoint" />
          </mxGeometry>
        </mxCell>
        <mxCell id="gNsDPr1be6KkHbp5NU5g-259" value="" style="group" vertex="1" connectable="0" parent="gNsDPr1be6KkHbp5NU5g-245">
          <mxGeometry x="120" y="80" width="80" height="80" as="geometry" />
        </mxCell>
        <mxCell id="gNsDPr1be6KkHbp5NU5g-260" value="" style="endArrow=classic;html=1;rounded=0;strokeColor=#0000FF;" edge="1" parent="gNsDPr1be6KkHbp5NU5g-259">
          <mxGeometry width="50" height="50" relative="1" as="geometry">
            <mxPoint x="40" y="39.870000000000005" as="sourcePoint" />
            <mxPoint x="60" y="39.870000000000005" as="targetPoint" />
          </mxGeometry>
        </mxCell>
        <mxCell id="gNsDPr1be6KkHbp5NU5g-261" value="" style="shape=waypoint;sketch=0;fillStyle=solid;size=6;pointerEvents=1;points=[];fillColor=none;resizable=0;rotatable=0;perimeter=centerPerimeter;snapToPoint=1;strokeColor=#0000FF;rotation=0;" vertex="1" parent="gNsDPr1be6KkHbp5NU5g-259">
          <mxGeometry x="30" y="30" width="20" height="20" as="geometry" />
        </mxCell>
        <mxCell id="gNsDPr1be6KkHbp5NU5g-262" value="&lt;div style=&quot;&quot;&gt;&lt;span style=&quot;font-size: 20px;&quot;&gt;1&lt;/span&gt;&lt;/div&gt;" style="ellipse;whiteSpace=wrap;html=1;fillColor=none;perimeterSpacing=1;strokeWidth=1;strokeColor=#0000FF;rotation=0;align=left;" vertex="1" parent="gNsDPr1be6KkHbp5NU5g-259">
          <mxGeometry width="80" height="80" as="geometry" />
        </mxCell>
        <mxCell id="gNsDPr1be6KkHbp5NU5g-263" value="" style="group" vertex="1" connectable="0" parent="gNsDPr1be6KkHbp5NU5g-259">
          <mxGeometry x="-40" width="80" height="80" as="geometry" />
        </mxCell>
        <mxCell id="gNsDPr1be6KkHbp5NU5g-264" value="" style="endArrow=classic;html=1;rounded=0;strokeColor=#0000FF;" edge="1" parent="gNsDPr1be6KkHbp5NU5g-263">
          <mxGeometry width="50" height="50" relative="1" as="geometry">
            <mxPoint x="39.889999999999986" y="40" as="sourcePoint" />
            <mxPoint x="39.889999999999986" y="20" as="targetPoint" />
          </mxGeometry>
        </mxCell>
        <mxCell id="gNsDPr1be6KkHbp5NU5g-265" value="" style="shape=waypoint;sketch=0;fillStyle=solid;size=6;pointerEvents=1;points=[];fillColor=none;resizable=0;rotatable=0;perimeter=centerPerimeter;snapToPoint=1;strokeColor=#0000FF;rotation=0;" vertex="1" parent="gNsDPr1be6KkHbp5NU5g-263">
          <mxGeometry x="30" y="30" width="20" height="20" as="geometry" />
        </mxCell>
        <mxCell id="gNsDPr1be6KkHbp5NU5g-266" value="&lt;font style=&quot;font-size: 20px;&quot;&gt;3&lt;/font&gt;" style="ellipse;whiteSpace=wrap;html=1;fillColor=none;perimeterSpacing=1;strokeWidth=1;strokeColor=#0000FF;rotation=0;align=left;" vertex="1" parent="gNsDPr1be6KkHbp5NU5g-263">
          <mxGeometry width="80" height="80" as="geometry" />
        </mxCell>
        <mxCell id="gNsDPr1be6KkHbp5NU5g-267" value="" style="group" vertex="1" connectable="0" parent="1">
          <mxGeometry x="600" y="1480" width="240" height="240" as="geometry" />
        </mxCell>
        <mxCell id="gNsDPr1be6KkHbp5NU5g-268" value="" style="rounded=0;whiteSpace=wrap;html=1;fillColor=none;" vertex="1" parent="gNsDPr1be6KkHbp5NU5g-267">
          <mxGeometry width="240" height="240" as="geometry" />
        </mxCell>
        <mxCell id="gNsDPr1be6KkHbp5NU5g-269" value="" style="endArrow=classic;html=1;rounded=0;exitX=0;exitY=0.5;exitDx=0;exitDy=0;entryX=1;entryY=0.5;entryDx=0;entryDy=0;" edge="1" parent="gNsDPr1be6KkHbp5NU5g-267" source="gNsDPr1be6KkHbp5NU5g-268" target="gNsDPr1be6KkHbp5NU5g-268">
          <mxGeometry width="50" height="50" relative="1" as="geometry">
            <mxPoint x="890" y="560" as="sourcePoint" />
            <mxPoint x="940" y="510" as="targetPoint" />
          </mxGeometry>
        </mxCell>
        <mxCell id="gNsDPr1be6KkHbp5NU5g-270" value="x" style="edgeLabel;html=1;align=center;verticalAlign=middle;resizable=0;points=[];" vertex="1" connectable="0" parent="gNsDPr1be6KkHbp5NU5g-269">
          <mxGeometry x="0.5192" y="1" relative="1" as="geometry">
            <mxPoint as="offset" />
          </mxGeometry>
        </mxCell>
        <mxCell id="gNsDPr1be6KkHbp5NU5g-271" value="" style="endArrow=classic;html=1;rounded=0;entryX=0.5;entryY=0;entryDx=0;entryDy=0;exitX=0.5;exitY=1;exitDx=0;exitDy=0;" edge="1" parent="gNsDPr1be6KkHbp5NU5g-267" source="gNsDPr1be6KkHbp5NU5g-268" target="gNsDPr1be6KkHbp5NU5g-268">
          <mxGeometry width="50" height="50" relative="1" as="geometry">
            <mxPoint x="140" y="330" as="sourcePoint" />
            <mxPoint x="340" y="280" as="targetPoint" />
          </mxGeometry>
        </mxCell>
        <mxCell id="gNsDPr1be6KkHbp5NU5g-272" value="y" style="edgeLabel;html=1;align=center;verticalAlign=middle;resizable=0;points=[];" vertex="1" connectable="0" parent="gNsDPr1be6KkHbp5NU5g-271">
          <mxGeometry x="0.5003" y="-1" relative="1" as="geometry">
            <mxPoint as="offset" />
          </mxGeometry>
        </mxCell>
        <mxCell id="gNsDPr1be6KkHbp5NU5g-273" value="" style="endArrow=none;dashed=1;html=1;rounded=0;exitX=0.163;exitY=0.992;exitDx=0;exitDy=0;exitPerimeter=0;strokeWidth=1;opacity=10;" edge="1" parent="gNsDPr1be6KkHbp5NU5g-267">
          <mxGeometry width="50" height="50" relative="1" as="geometry">
            <mxPoint x="40.120000000000005" y="238.08000000000004" as="sourcePoint" />
            <mxPoint x="40" as="targetPoint" />
          </mxGeometry>
        </mxCell>
        <mxCell id="gNsDPr1be6KkHbp5NU5g-274" value="" style="endArrow=none;dashed=1;html=1;rounded=0;exitX=0.163;exitY=0.992;exitDx=0;exitDy=0;exitPerimeter=0;strokeWidth=1;opacity=10;" edge="1" parent="gNsDPr1be6KkHbp5NU5g-267">
          <mxGeometry width="50" height="50" relative="1" as="geometry">
            <mxPoint x="80.12" y="238.08000000000004" as="sourcePoint" />
            <mxPoint x="80" as="targetPoint" />
          </mxGeometry>
        </mxCell>
        <mxCell id="gNsDPr1be6KkHbp5NU5g-275" value="" style="endArrow=none;dashed=1;html=1;rounded=0;exitX=0.163;exitY=0.992;exitDx=0;exitDy=0;exitPerimeter=0;strokeWidth=1;opacity=10;" edge="1" parent="gNsDPr1be6KkHbp5NU5g-267">
          <mxGeometry width="50" height="50" relative="1" as="geometry">
            <mxPoint x="160.12" y="238.08000000000004" as="sourcePoint" />
            <mxPoint x="160" as="targetPoint" />
          </mxGeometry>
        </mxCell>
        <mxCell id="gNsDPr1be6KkHbp5NU5g-276" value="" style="endArrow=none;dashed=1;html=1;rounded=0;exitX=0.163;exitY=0.992;exitDx=0;exitDy=0;exitPerimeter=0;strokeWidth=1;opacity=10;" edge="1" parent="gNsDPr1be6KkHbp5NU5g-267">
          <mxGeometry width="50" height="50" relative="1" as="geometry">
            <mxPoint x="200.12" y="238.08000000000004" as="sourcePoint" />
            <mxPoint x="200" as="targetPoint" />
          </mxGeometry>
        </mxCell>
        <mxCell id="gNsDPr1be6KkHbp5NU5g-277" value="" style="endArrow=none;dashed=1;html=1;rounded=0;strokeWidth=1;endSize=6;jumpSize=6;opacity=10;" edge="1" parent="gNsDPr1be6KkHbp5NU5g-267">
          <mxGeometry width="50" height="50" relative="1" as="geometry">
            <mxPoint y="40" as="sourcePoint" />
            <mxPoint x="240" y="40" as="targetPoint" />
          </mxGeometry>
        </mxCell>
        <mxCell id="gNsDPr1be6KkHbp5NU5g-278" value="" style="endArrow=none;dashed=1;html=1;rounded=0;strokeWidth=1;endSize=6;jumpSize=6;opacity=10;" edge="1" parent="gNsDPr1be6KkHbp5NU5g-267">
          <mxGeometry width="50" height="50" relative="1" as="geometry">
            <mxPoint y="80" as="sourcePoint" />
            <mxPoint x="240" y="80" as="targetPoint" />
          </mxGeometry>
        </mxCell>
        <mxCell id="gNsDPr1be6KkHbp5NU5g-279" value="" style="endArrow=none;dashed=1;html=1;rounded=0;strokeWidth=1;endSize=6;jumpSize=6;opacity=10;" edge="1" parent="gNsDPr1be6KkHbp5NU5g-267">
          <mxGeometry width="50" height="50" relative="1" as="geometry">
            <mxPoint y="160" as="sourcePoint" />
            <mxPoint x="240" y="160" as="targetPoint" />
          </mxGeometry>
        </mxCell>
        <mxCell id="gNsDPr1be6KkHbp5NU5g-280" value="" style="endArrow=none;dashed=1;html=1;rounded=0;strokeWidth=1;endSize=6;jumpSize=6;opacity=10;" edge="1" parent="gNsDPr1be6KkHbp5NU5g-267">
          <mxGeometry width="50" height="50" relative="1" as="geometry">
            <mxPoint y="200" as="sourcePoint" />
            <mxPoint x="240" y="200" as="targetPoint" />
          </mxGeometry>
        </mxCell>
        <mxCell id="gNsDPr1be6KkHbp5NU5g-281" value="" style="group" vertex="1" connectable="0" parent="gNsDPr1be6KkHbp5NU5g-267">
          <mxGeometry x="120" y="80" width="80" height="80" as="geometry" />
        </mxCell>
        <mxCell id="gNsDPr1be6KkHbp5NU5g-282" value="" style="endArrow=classic;html=1;rounded=0;strokeColor=#0000FF;" edge="1" parent="gNsDPr1be6KkHbp5NU5g-281">
          <mxGeometry width="50" height="50" relative="1" as="geometry">
            <mxPoint x="40" y="39.870000000000005" as="sourcePoint" />
            <mxPoint x="60" y="39.870000000000005" as="targetPoint" />
          </mxGeometry>
        </mxCell>
        <mxCell id="gNsDPr1be6KkHbp5NU5g-283" value="" style="shape=waypoint;sketch=0;fillStyle=solid;size=6;pointerEvents=1;points=[];fillColor=none;resizable=0;rotatable=0;perimeter=centerPerimeter;snapToPoint=1;strokeColor=#0000FF;rotation=0;" vertex="1" parent="gNsDPr1be6KkHbp5NU5g-281">
          <mxGeometry x="30" y="30" width="20" height="20" as="geometry" />
        </mxCell>
        <mxCell id="gNsDPr1be6KkHbp5NU5g-284" value="&lt;div style=&quot;&quot;&gt;&lt;span style=&quot;font-size: 20px;&quot;&gt;1&lt;/span&gt;&lt;/div&gt;" style="ellipse;whiteSpace=wrap;html=1;fillColor=none;perimeterSpacing=1;strokeWidth=1;strokeColor=#0000FF;rotation=0;align=left;" vertex="1" parent="gNsDPr1be6KkHbp5NU5g-281">
          <mxGeometry width="80" height="80" as="geometry" />
        </mxCell>
        <mxCell id="gNsDPr1be6KkHbp5NU5g-285" value="" style="group" vertex="1" connectable="0" parent="gNsDPr1be6KkHbp5NU5g-281">
          <mxGeometry x="-40" y="-40" width="80" height="80" as="geometry" />
        </mxCell>
        <mxCell id="gNsDPr1be6KkHbp5NU5g-286" value="" style="endArrow=classic;html=1;rounded=0;strokeColor=#0000FF;" edge="1" parent="gNsDPr1be6KkHbp5NU5g-285">
          <mxGeometry width="50" height="50" relative="1" as="geometry">
            <mxPoint x="39.889999999999986" y="40" as="sourcePoint" />
            <mxPoint x="39.889999999999986" y="20" as="targetPoint" />
          </mxGeometry>
        </mxCell>
        <mxCell id="gNsDPr1be6KkHbp5NU5g-287" value="" style="shape=waypoint;sketch=0;fillStyle=solid;size=6;pointerEvents=1;points=[];fillColor=none;resizable=0;rotatable=0;perimeter=centerPerimeter;snapToPoint=1;strokeColor=#0000FF;rotation=0;" vertex="1" parent="gNsDPr1be6KkHbp5NU5g-285">
          <mxGeometry x="30" y="30" width="20" height="20" as="geometry" />
        </mxCell>
        <mxCell id="gNsDPr1be6KkHbp5NU5g-288" value="&lt;font style=&quot;font-size: 20px;&quot;&gt;3&lt;/font&gt;" style="ellipse;whiteSpace=wrap;html=1;fillColor=none;perimeterSpacing=1;strokeWidth=1;strokeColor=#0000FF;rotation=0;align=left;" vertex="1" parent="gNsDPr1be6KkHbp5NU5g-285">
          <mxGeometry width="80" height="80" as="geometry" />
        </mxCell>
        <mxCell id="gNsDPr1be6KkHbp5NU5g-289" value="" style="group" vertex="1" connectable="0" parent="1">
          <mxGeometry x="320" y="1760" width="240" height="240" as="geometry" />
        </mxCell>
        <mxCell id="gNsDPr1be6KkHbp5NU5g-290" value="" style="rounded=0;whiteSpace=wrap;html=1;fillColor=none;" vertex="1" parent="gNsDPr1be6KkHbp5NU5g-289">
          <mxGeometry width="240" height="240" as="geometry" />
        </mxCell>
        <mxCell id="gNsDPr1be6KkHbp5NU5g-291" value="" style="endArrow=classic;html=1;rounded=0;exitX=0;exitY=0.5;exitDx=0;exitDy=0;entryX=1;entryY=0.5;entryDx=0;entryDy=0;" edge="1" parent="gNsDPr1be6KkHbp5NU5g-289" source="gNsDPr1be6KkHbp5NU5g-290" target="gNsDPr1be6KkHbp5NU5g-290">
          <mxGeometry width="50" height="50" relative="1" as="geometry">
            <mxPoint x="890" y="560" as="sourcePoint" />
            <mxPoint x="940" y="510" as="targetPoint" />
          </mxGeometry>
        </mxCell>
        <mxCell id="gNsDPr1be6KkHbp5NU5g-292" value="x" style="edgeLabel;html=1;align=center;verticalAlign=middle;resizable=0;points=[];" vertex="1" connectable="0" parent="gNsDPr1be6KkHbp5NU5g-291">
          <mxGeometry x="0.5192" y="1" relative="1" as="geometry">
            <mxPoint as="offset" />
          </mxGeometry>
        </mxCell>
        <mxCell id="gNsDPr1be6KkHbp5NU5g-293" value="" style="endArrow=classic;html=1;rounded=0;entryX=0.5;entryY=0;entryDx=0;entryDy=0;exitX=0.5;exitY=1;exitDx=0;exitDy=0;" edge="1" parent="gNsDPr1be6KkHbp5NU5g-289" source="gNsDPr1be6KkHbp5NU5g-290" target="gNsDPr1be6KkHbp5NU5g-290">
          <mxGeometry width="50" height="50" relative="1" as="geometry">
            <mxPoint x="140" y="330" as="sourcePoint" />
            <mxPoint x="340" y="280" as="targetPoint" />
          </mxGeometry>
        </mxCell>
        <mxCell id="gNsDPr1be6KkHbp5NU5g-294" value="y" style="edgeLabel;html=1;align=center;verticalAlign=middle;resizable=0;points=[];" vertex="1" connectable="0" parent="gNsDPr1be6KkHbp5NU5g-293">
          <mxGeometry x="0.5003" y="-1" relative="1" as="geometry">
            <mxPoint as="offset" />
          </mxGeometry>
        </mxCell>
        <mxCell id="gNsDPr1be6KkHbp5NU5g-295" value="" style="endArrow=none;dashed=1;html=1;rounded=0;exitX=0.163;exitY=0.992;exitDx=0;exitDy=0;exitPerimeter=0;strokeWidth=1;opacity=10;" edge="1" parent="gNsDPr1be6KkHbp5NU5g-289">
          <mxGeometry width="50" height="50" relative="1" as="geometry">
            <mxPoint x="40.120000000000005" y="238.08000000000004" as="sourcePoint" />
            <mxPoint x="40" as="targetPoint" />
          </mxGeometry>
        </mxCell>
        <mxCell id="gNsDPr1be6KkHbp5NU5g-296" value="" style="endArrow=none;dashed=1;html=1;rounded=0;exitX=0.163;exitY=0.992;exitDx=0;exitDy=0;exitPerimeter=0;strokeWidth=1;opacity=10;" edge="1" parent="gNsDPr1be6KkHbp5NU5g-289">
          <mxGeometry width="50" height="50" relative="1" as="geometry">
            <mxPoint x="80.12" y="238.08000000000004" as="sourcePoint" />
            <mxPoint x="80" as="targetPoint" />
          </mxGeometry>
        </mxCell>
        <mxCell id="gNsDPr1be6KkHbp5NU5g-297" value="" style="endArrow=none;dashed=1;html=1;rounded=0;exitX=0.163;exitY=0.992;exitDx=0;exitDy=0;exitPerimeter=0;strokeWidth=1;opacity=10;" edge="1" parent="gNsDPr1be6KkHbp5NU5g-289">
          <mxGeometry width="50" height="50" relative="1" as="geometry">
            <mxPoint x="160.12" y="238.08000000000004" as="sourcePoint" />
            <mxPoint x="160" as="targetPoint" />
          </mxGeometry>
        </mxCell>
        <mxCell id="gNsDPr1be6KkHbp5NU5g-298" value="" style="endArrow=none;dashed=1;html=1;rounded=0;exitX=0.163;exitY=0.992;exitDx=0;exitDy=0;exitPerimeter=0;strokeWidth=1;opacity=10;" edge="1" parent="gNsDPr1be6KkHbp5NU5g-289">
          <mxGeometry width="50" height="50" relative="1" as="geometry">
            <mxPoint x="200.12" y="238.08000000000004" as="sourcePoint" />
            <mxPoint x="200" as="targetPoint" />
          </mxGeometry>
        </mxCell>
        <mxCell id="gNsDPr1be6KkHbp5NU5g-299" value="" style="endArrow=none;dashed=1;html=1;rounded=0;strokeWidth=1;endSize=6;jumpSize=6;opacity=10;" edge="1" parent="gNsDPr1be6KkHbp5NU5g-289">
          <mxGeometry width="50" height="50" relative="1" as="geometry">
            <mxPoint y="40" as="sourcePoint" />
            <mxPoint x="240" y="40" as="targetPoint" />
          </mxGeometry>
        </mxCell>
        <mxCell id="gNsDPr1be6KkHbp5NU5g-300" value="" style="endArrow=none;dashed=1;html=1;rounded=0;strokeWidth=1;endSize=6;jumpSize=6;opacity=10;" edge="1" parent="gNsDPr1be6KkHbp5NU5g-289">
          <mxGeometry width="50" height="50" relative="1" as="geometry">
            <mxPoint y="80" as="sourcePoint" />
            <mxPoint x="240" y="80" as="targetPoint" />
          </mxGeometry>
        </mxCell>
        <mxCell id="gNsDPr1be6KkHbp5NU5g-301" value="" style="endArrow=none;dashed=1;html=1;rounded=0;strokeWidth=1;endSize=6;jumpSize=6;opacity=10;" edge="1" parent="gNsDPr1be6KkHbp5NU5g-289">
          <mxGeometry width="50" height="50" relative="1" as="geometry">
            <mxPoint y="160" as="sourcePoint" />
            <mxPoint x="240" y="160" as="targetPoint" />
          </mxGeometry>
        </mxCell>
        <mxCell id="gNsDPr1be6KkHbp5NU5g-302" value="" style="endArrow=none;dashed=1;html=1;rounded=0;strokeWidth=1;endSize=6;jumpSize=6;opacity=10;" edge="1" parent="gNsDPr1be6KkHbp5NU5g-289">
          <mxGeometry width="50" height="50" relative="1" as="geometry">
            <mxPoint y="200" as="sourcePoint" />
            <mxPoint x="240" y="200" as="targetPoint" />
          </mxGeometry>
        </mxCell>
        <mxCell id="gNsDPr1be6KkHbp5NU5g-307" value="" style="group" vertex="1" connectable="0" parent="gNsDPr1be6KkHbp5NU5g-289">
          <mxGeometry x="80" y="40" width="80" height="80" as="geometry" />
        </mxCell>
        <mxCell id="gNsDPr1be6KkHbp5NU5g-308" value="" style="endArrow=classic;html=1;rounded=0;strokeColor=#0000FF;" edge="1" parent="gNsDPr1be6KkHbp5NU5g-307">
          <mxGeometry width="50" height="50" relative="1" as="geometry">
            <mxPoint x="39.85000000000002" y="40" as="sourcePoint" />
            <mxPoint x="40" y="60" as="targetPoint" />
          </mxGeometry>
        </mxCell>
        <mxCell id="gNsDPr1be6KkHbp5NU5g-309" value="" style="shape=waypoint;sketch=0;fillStyle=solid;size=6;pointerEvents=1;points=[];fillColor=none;resizable=0;rotatable=0;perimeter=centerPerimeter;snapToPoint=1;strokeColor=#0000FF;rotation=0;" vertex="1" parent="gNsDPr1be6KkHbp5NU5g-307">
          <mxGeometry x="30" y="30" width="20" height="20" as="geometry" />
        </mxCell>
        <mxCell id="gNsDPr1be6KkHbp5NU5g-310" value="&lt;font style=&quot;font-size: 20px;&quot;&gt;3&lt;/font&gt;" style="ellipse;whiteSpace=wrap;html=1;fillColor=none;perimeterSpacing=1;strokeWidth=1;strokeColor=#0000FF;rotation=0;align=left;" vertex="1" parent="gNsDPr1be6KkHbp5NU5g-307">
          <mxGeometry width="80" height="80" as="geometry" />
        </mxCell>
        <mxCell id="gNsDPr1be6KkHbp5NU5g-311" style="edgeStyle=orthogonalEdgeStyle;rounded=0;orthogonalLoop=1;jettySize=auto;html=1;entryX=1;entryY=0;entryDx=0;entryDy=0;entryPerimeter=0;" edge="1" parent="gNsDPr1be6KkHbp5NU5g-307" source="gNsDPr1be6KkHbp5NU5g-309" target="gNsDPr1be6KkHbp5NU5g-309">
          <mxGeometry relative="1" as="geometry" />
        </mxCell>
        <mxCell id="gNsDPr1be6KkHbp5NU5g-312" value="" style="group" vertex="1" connectable="0" parent="1">
          <mxGeometry x="600" y="1760" width="240" height="240" as="geometry" />
        </mxCell>
        <mxCell id="gNsDPr1be6KkHbp5NU5g-313" value="" style="rounded=0;whiteSpace=wrap;html=1;fillColor=none;" vertex="1" parent="gNsDPr1be6KkHbp5NU5g-312">
          <mxGeometry width="240" height="240" as="geometry" />
        </mxCell>
        <mxCell id="gNsDPr1be6KkHbp5NU5g-314" value="" style="endArrow=classic;html=1;rounded=0;exitX=0;exitY=0.5;exitDx=0;exitDy=0;entryX=1;entryY=0.5;entryDx=0;entryDy=0;" edge="1" parent="gNsDPr1be6KkHbp5NU5g-312" source="gNsDPr1be6KkHbp5NU5g-313" target="gNsDPr1be6KkHbp5NU5g-313">
          <mxGeometry width="50" height="50" relative="1" as="geometry">
            <mxPoint x="890" y="560" as="sourcePoint" />
            <mxPoint x="940" y="510" as="targetPoint" />
          </mxGeometry>
        </mxCell>
        <mxCell id="gNsDPr1be6KkHbp5NU5g-315" value="x" style="edgeLabel;html=1;align=center;verticalAlign=middle;resizable=0;points=[];" vertex="1" connectable="0" parent="gNsDPr1be6KkHbp5NU5g-314">
          <mxGeometry x="0.5192" y="1" relative="1" as="geometry">
            <mxPoint as="offset" />
          </mxGeometry>
        </mxCell>
        <mxCell id="gNsDPr1be6KkHbp5NU5g-316" value="" style="endArrow=classic;html=1;rounded=0;entryX=0.5;entryY=0;entryDx=0;entryDy=0;exitX=0.5;exitY=1;exitDx=0;exitDy=0;" edge="1" parent="gNsDPr1be6KkHbp5NU5g-312" source="gNsDPr1be6KkHbp5NU5g-313" target="gNsDPr1be6KkHbp5NU5g-313">
          <mxGeometry width="50" height="50" relative="1" as="geometry">
            <mxPoint x="140" y="330" as="sourcePoint" />
            <mxPoint x="340" y="280" as="targetPoint" />
          </mxGeometry>
        </mxCell>
        <mxCell id="gNsDPr1be6KkHbp5NU5g-317" value="y" style="edgeLabel;html=1;align=center;verticalAlign=middle;resizable=0;points=[];" vertex="1" connectable="0" parent="gNsDPr1be6KkHbp5NU5g-316">
          <mxGeometry x="0.5003" y="-1" relative="1" as="geometry">
            <mxPoint as="offset" />
          </mxGeometry>
        </mxCell>
        <mxCell id="gNsDPr1be6KkHbp5NU5g-318" value="" style="endArrow=none;dashed=1;html=1;rounded=0;exitX=0.163;exitY=0.992;exitDx=0;exitDy=0;exitPerimeter=0;strokeWidth=1;opacity=10;" edge="1" parent="gNsDPr1be6KkHbp5NU5g-312">
          <mxGeometry width="50" height="50" relative="1" as="geometry">
            <mxPoint x="40.120000000000005" y="238.08000000000004" as="sourcePoint" />
            <mxPoint x="40" as="targetPoint" />
          </mxGeometry>
        </mxCell>
        <mxCell id="gNsDPr1be6KkHbp5NU5g-319" value="" style="endArrow=none;dashed=1;html=1;rounded=0;exitX=0.163;exitY=0.992;exitDx=0;exitDy=0;exitPerimeter=0;strokeWidth=1;opacity=10;" edge="1" parent="gNsDPr1be6KkHbp5NU5g-312">
          <mxGeometry width="50" height="50" relative="1" as="geometry">
            <mxPoint x="80.12" y="238.08000000000004" as="sourcePoint" />
            <mxPoint x="80" as="targetPoint" />
          </mxGeometry>
        </mxCell>
        <mxCell id="gNsDPr1be6KkHbp5NU5g-320" value="" style="endArrow=none;dashed=1;html=1;rounded=0;exitX=0.163;exitY=0.992;exitDx=0;exitDy=0;exitPerimeter=0;strokeWidth=1;opacity=10;" edge="1" parent="gNsDPr1be6KkHbp5NU5g-312">
          <mxGeometry width="50" height="50" relative="1" as="geometry">
            <mxPoint x="160.12" y="238.08000000000004" as="sourcePoint" />
            <mxPoint x="160" as="targetPoint" />
          </mxGeometry>
        </mxCell>
        <mxCell id="gNsDPr1be6KkHbp5NU5g-321" value="" style="endArrow=none;dashed=1;html=1;rounded=0;exitX=0.163;exitY=0.992;exitDx=0;exitDy=0;exitPerimeter=0;strokeWidth=1;opacity=10;" edge="1" parent="gNsDPr1be6KkHbp5NU5g-312">
          <mxGeometry width="50" height="50" relative="1" as="geometry">
            <mxPoint x="200.12" y="238.08000000000004" as="sourcePoint" />
            <mxPoint x="200" as="targetPoint" />
          </mxGeometry>
        </mxCell>
        <mxCell id="gNsDPr1be6KkHbp5NU5g-322" value="" style="endArrow=none;dashed=1;html=1;rounded=0;strokeWidth=1;endSize=6;jumpSize=6;opacity=10;" edge="1" parent="gNsDPr1be6KkHbp5NU5g-312">
          <mxGeometry width="50" height="50" relative="1" as="geometry">
            <mxPoint y="40" as="sourcePoint" />
            <mxPoint x="240" y="40" as="targetPoint" />
          </mxGeometry>
        </mxCell>
        <mxCell id="gNsDPr1be6KkHbp5NU5g-323" value="" style="endArrow=none;dashed=1;html=1;rounded=0;strokeWidth=1;endSize=6;jumpSize=6;opacity=10;" edge="1" parent="gNsDPr1be6KkHbp5NU5g-312">
          <mxGeometry width="50" height="50" relative="1" as="geometry">
            <mxPoint y="80" as="sourcePoint" />
            <mxPoint x="240" y="80" as="targetPoint" />
          </mxGeometry>
        </mxCell>
        <mxCell id="gNsDPr1be6KkHbp5NU5g-324" value="" style="endArrow=none;dashed=1;html=1;rounded=0;strokeWidth=1;endSize=6;jumpSize=6;opacity=10;" edge="1" parent="gNsDPr1be6KkHbp5NU5g-312">
          <mxGeometry width="50" height="50" relative="1" as="geometry">
            <mxPoint y="160" as="sourcePoint" />
            <mxPoint x="240" y="160" as="targetPoint" />
          </mxGeometry>
        </mxCell>
        <mxCell id="gNsDPr1be6KkHbp5NU5g-325" value="" style="endArrow=none;dashed=1;html=1;rounded=0;strokeWidth=1;endSize=6;jumpSize=6;opacity=10;" edge="1" parent="gNsDPr1be6KkHbp5NU5g-312">
          <mxGeometry width="50" height="50" relative="1" as="geometry">
            <mxPoint y="200" as="sourcePoint" />
            <mxPoint x="240" y="200" as="targetPoint" />
          </mxGeometry>
        </mxCell>
        <mxCell id="gNsDPr1be6KkHbp5NU5g-326" value="" style="group" vertex="1" connectable="0" parent="gNsDPr1be6KkHbp5NU5g-312">
          <mxGeometry x="120" y="80" width="80" height="80" as="geometry" />
        </mxCell>
        <mxCell id="gNsDPr1be6KkHbp5NU5g-327" value="" style="endArrow=classic;html=1;rounded=0;strokeColor=#0000FF;" edge="1" parent="gNsDPr1be6KkHbp5NU5g-326">
          <mxGeometry width="50" height="50" relative="1" as="geometry">
            <mxPoint x="40" y="39.860000000000014" as="sourcePoint" />
            <mxPoint x="20" y="39.860000000000014" as="targetPoint" />
          </mxGeometry>
        </mxCell>
        <mxCell id="gNsDPr1be6KkHbp5NU5g-328" value="" style="shape=waypoint;sketch=0;fillStyle=solid;size=6;pointerEvents=1;points=[];fillColor=none;resizable=0;rotatable=0;perimeter=centerPerimeter;snapToPoint=1;strokeColor=#0000FF;rotation=0;" vertex="1" parent="gNsDPr1be6KkHbp5NU5g-326">
          <mxGeometry x="30" y="30" width="20" height="20" as="geometry" />
        </mxCell>
        <mxCell id="gNsDPr1be6KkHbp5NU5g-329" value="&lt;font style=&quot;font-size: 20px;&quot;&gt;1&lt;/font&gt;" style="ellipse;whiteSpace=wrap;html=1;fillColor=none;perimeterSpacing=1;strokeWidth=1;strokeColor=#0000FF;rotation=0;align=right;" vertex="1" parent="gNsDPr1be6KkHbp5NU5g-326">
          <mxGeometry width="80" height="80" as="geometry" />
        </mxCell>
        <mxCell id="gNsDPr1be6KkHbp5NU5g-330" value="" style="group" vertex="1" connectable="0" parent="gNsDPr1be6KkHbp5NU5g-312">
          <mxGeometry x="80" y="40" width="80" height="80" as="geometry" />
        </mxCell>
        <mxCell id="gNsDPr1be6KkHbp5NU5g-331" value="" style="endArrow=classic;html=1;rounded=0;strokeColor=#0000FF;" edge="1" parent="gNsDPr1be6KkHbp5NU5g-330">
          <mxGeometry width="50" height="50" relative="1" as="geometry">
            <mxPoint x="39.85000000000002" y="40" as="sourcePoint" />
            <mxPoint x="40" y="60" as="targetPoint" />
          </mxGeometry>
        </mxCell>
        <mxCell id="gNsDPr1be6KkHbp5NU5g-332" value="" style="shape=waypoint;sketch=0;fillStyle=solid;size=6;pointerEvents=1;points=[];fillColor=none;resizable=0;rotatable=0;perimeter=centerPerimeter;snapToPoint=1;strokeColor=#0000FF;rotation=0;" vertex="1" parent="gNsDPr1be6KkHbp5NU5g-330">
          <mxGeometry x="30" y="30" width="20" height="20" as="geometry" />
        </mxCell>
        <mxCell id="gNsDPr1be6KkHbp5NU5g-333" value="&lt;font style=&quot;font-size: 20px;&quot;&gt;3&lt;/font&gt;" style="ellipse;whiteSpace=wrap;html=1;fillColor=none;perimeterSpacing=1;strokeWidth=1;strokeColor=#0000FF;rotation=0;align=left;" vertex="1" parent="gNsDPr1be6KkHbp5NU5g-330">
          <mxGeometry width="80" height="80" as="geometry" />
        </mxCell>
        <mxCell id="gNsDPr1be6KkHbp5NU5g-334" style="edgeStyle=orthogonalEdgeStyle;rounded=0;orthogonalLoop=1;jettySize=auto;html=1;entryX=1;entryY=0;entryDx=0;entryDy=0;entryPerimeter=0;" edge="1" parent="gNsDPr1be6KkHbp5NU5g-330" source="gNsDPr1be6KkHbp5NU5g-332" target="gNsDPr1be6KkHbp5NU5g-332">
          <mxGeometry relative="1" as="geometry" />
        </mxCell>
        <mxCell id="gNsDPr1be6KkHbp5NU5g-335" value="" style="group" vertex="1" connectable="0" parent="1">
          <mxGeometry x="40" y="1760" width="240" height="240" as="geometry" />
        </mxCell>
        <mxCell id="gNsDPr1be6KkHbp5NU5g-336" value="" style="rounded=0;whiteSpace=wrap;html=1;fillColor=none;" vertex="1" parent="gNsDPr1be6KkHbp5NU5g-335">
          <mxGeometry width="240" height="240" as="geometry" />
        </mxCell>
        <mxCell id="gNsDPr1be6KkHbp5NU5g-337" value="" style="endArrow=classic;html=1;rounded=0;exitX=0;exitY=0.5;exitDx=0;exitDy=0;entryX=1;entryY=0.5;entryDx=0;entryDy=0;" edge="1" parent="gNsDPr1be6KkHbp5NU5g-335" source="gNsDPr1be6KkHbp5NU5g-336" target="gNsDPr1be6KkHbp5NU5g-336">
          <mxGeometry width="50" height="50" relative="1" as="geometry">
            <mxPoint x="890" y="560" as="sourcePoint" />
            <mxPoint x="940" y="510" as="targetPoint" />
          </mxGeometry>
        </mxCell>
        <mxCell id="gNsDPr1be6KkHbp5NU5g-338" value="x" style="edgeLabel;html=1;align=center;verticalAlign=middle;resizable=0;points=[];" vertex="1" connectable="0" parent="gNsDPr1be6KkHbp5NU5g-337">
          <mxGeometry x="0.5192" y="1" relative="1" as="geometry">
            <mxPoint as="offset" />
          </mxGeometry>
        </mxCell>
        <mxCell id="gNsDPr1be6KkHbp5NU5g-339" value="" style="endArrow=classic;html=1;rounded=0;entryX=0.5;entryY=0;entryDx=0;entryDy=0;exitX=0.5;exitY=1;exitDx=0;exitDy=0;" edge="1" parent="gNsDPr1be6KkHbp5NU5g-335" source="gNsDPr1be6KkHbp5NU5g-336" target="gNsDPr1be6KkHbp5NU5g-336">
          <mxGeometry width="50" height="50" relative="1" as="geometry">
            <mxPoint x="140" y="330" as="sourcePoint" />
            <mxPoint x="340" y="280" as="targetPoint" />
          </mxGeometry>
        </mxCell>
        <mxCell id="gNsDPr1be6KkHbp5NU5g-340" value="y" style="edgeLabel;html=1;align=center;verticalAlign=middle;resizable=0;points=[];" vertex="1" connectable="0" parent="gNsDPr1be6KkHbp5NU5g-339">
          <mxGeometry x="0.5003" y="-1" relative="1" as="geometry">
            <mxPoint as="offset" />
          </mxGeometry>
        </mxCell>
        <mxCell id="gNsDPr1be6KkHbp5NU5g-341" value="" style="endArrow=none;dashed=1;html=1;rounded=0;exitX=0.163;exitY=0.992;exitDx=0;exitDy=0;exitPerimeter=0;strokeWidth=1;opacity=10;" edge="1" parent="gNsDPr1be6KkHbp5NU5g-335">
          <mxGeometry width="50" height="50" relative="1" as="geometry">
            <mxPoint x="40.120000000000005" y="238.08000000000004" as="sourcePoint" />
            <mxPoint x="40" as="targetPoint" />
          </mxGeometry>
        </mxCell>
        <mxCell id="gNsDPr1be6KkHbp5NU5g-342" value="" style="endArrow=none;dashed=1;html=1;rounded=0;exitX=0.163;exitY=0.992;exitDx=0;exitDy=0;exitPerimeter=0;strokeWidth=1;opacity=10;" edge="1" parent="gNsDPr1be6KkHbp5NU5g-335">
          <mxGeometry width="50" height="50" relative="1" as="geometry">
            <mxPoint x="80.12" y="238.08000000000004" as="sourcePoint" />
            <mxPoint x="80" as="targetPoint" />
          </mxGeometry>
        </mxCell>
        <mxCell id="gNsDPr1be6KkHbp5NU5g-343" value="" style="endArrow=none;dashed=1;html=1;rounded=0;exitX=0.163;exitY=0.992;exitDx=0;exitDy=0;exitPerimeter=0;strokeWidth=1;opacity=10;" edge="1" parent="gNsDPr1be6KkHbp5NU5g-335">
          <mxGeometry width="50" height="50" relative="1" as="geometry">
            <mxPoint x="160.12" y="238.08000000000004" as="sourcePoint" />
            <mxPoint x="160" as="targetPoint" />
          </mxGeometry>
        </mxCell>
        <mxCell id="gNsDPr1be6KkHbp5NU5g-344" value="" style="endArrow=none;dashed=1;html=1;rounded=0;exitX=0.163;exitY=0.992;exitDx=0;exitDy=0;exitPerimeter=0;strokeWidth=1;opacity=10;" edge="1" parent="gNsDPr1be6KkHbp5NU5g-335">
          <mxGeometry width="50" height="50" relative="1" as="geometry">
            <mxPoint x="200.12" y="238.08000000000004" as="sourcePoint" />
            <mxPoint x="200" as="targetPoint" />
          </mxGeometry>
        </mxCell>
        <mxCell id="gNsDPr1be6KkHbp5NU5g-345" value="" style="endArrow=none;dashed=1;html=1;rounded=0;strokeWidth=1;endSize=6;jumpSize=6;opacity=10;" edge="1" parent="gNsDPr1be6KkHbp5NU5g-335">
          <mxGeometry width="50" height="50" relative="1" as="geometry">
            <mxPoint y="40" as="sourcePoint" />
            <mxPoint x="240" y="40" as="targetPoint" />
          </mxGeometry>
        </mxCell>
        <mxCell id="gNsDPr1be6KkHbp5NU5g-346" value="" style="endArrow=none;dashed=1;html=1;rounded=0;strokeWidth=1;endSize=6;jumpSize=6;opacity=10;" edge="1" parent="gNsDPr1be6KkHbp5NU5g-335">
          <mxGeometry width="50" height="50" relative="1" as="geometry">
            <mxPoint y="80" as="sourcePoint" />
            <mxPoint x="240" y="80" as="targetPoint" />
          </mxGeometry>
        </mxCell>
        <mxCell id="gNsDPr1be6KkHbp5NU5g-347" value="" style="endArrow=none;dashed=1;html=1;rounded=0;strokeWidth=1;endSize=6;jumpSize=6;opacity=10;" edge="1" parent="gNsDPr1be6KkHbp5NU5g-335">
          <mxGeometry width="50" height="50" relative="1" as="geometry">
            <mxPoint y="160" as="sourcePoint" />
            <mxPoint x="240" y="160" as="targetPoint" />
          </mxGeometry>
        </mxCell>
        <mxCell id="gNsDPr1be6KkHbp5NU5g-348" value="" style="endArrow=none;dashed=1;html=1;rounded=0;strokeWidth=1;endSize=6;jumpSize=6;opacity=10;" edge="1" parent="gNsDPr1be6KkHbp5NU5g-335">
          <mxGeometry width="50" height="50" relative="1" as="geometry">
            <mxPoint y="200" as="sourcePoint" />
            <mxPoint x="240" y="200" as="targetPoint" />
          </mxGeometry>
        </mxCell>
        <mxCell id="gNsDPr1be6KkHbp5NU5g-349" value="" style="group" vertex="1" connectable="0" parent="gNsDPr1be6KkHbp5NU5g-335">
          <mxGeometry x="120" y="80" width="80" height="80" as="geometry" />
        </mxCell>
        <mxCell id="gNsDPr1be6KkHbp5NU5g-350" value="" style="endArrow=classic;html=1;rounded=0;strokeColor=#0000FF;" edge="1" parent="gNsDPr1be6KkHbp5NU5g-349">
          <mxGeometry width="50" height="50" relative="1" as="geometry">
            <mxPoint x="40" y="39.870000000000005" as="sourcePoint" />
            <mxPoint x="60" y="39.870000000000005" as="targetPoint" />
          </mxGeometry>
        </mxCell>
        <mxCell id="gNsDPr1be6KkHbp5NU5g-351" value="" style="shape=waypoint;sketch=0;fillStyle=solid;size=6;pointerEvents=1;points=[];fillColor=none;resizable=0;rotatable=0;perimeter=centerPerimeter;snapToPoint=1;strokeColor=#0000FF;rotation=0;" vertex="1" parent="gNsDPr1be6KkHbp5NU5g-349">
          <mxGeometry x="30" y="30" width="20" height="20" as="geometry" />
        </mxCell>
        <mxCell id="gNsDPr1be6KkHbp5NU5g-352" value="&lt;div style=&quot;&quot;&gt;&lt;span style=&quot;font-size: 20px;&quot;&gt;1&lt;/span&gt;&lt;/div&gt;" style="ellipse;whiteSpace=wrap;html=1;fillColor=none;perimeterSpacing=1;strokeWidth=1;strokeColor=#0000FF;rotation=0;align=left;" vertex="1" parent="gNsDPr1be6KkHbp5NU5g-349">
          <mxGeometry width="80" height="80" as="geometry" />
        </mxCell>
        <mxCell id="gNsDPr1be6KkHbp5NU5g-353" value="" style="group" vertex="1" connectable="0" parent="gNsDPr1be6KkHbp5NU5g-349">
          <mxGeometry x="-40" y="-40" width="80" height="80" as="geometry" />
        </mxCell>
        <mxCell id="gNsDPr1be6KkHbp5NU5g-354" value="" style="endArrow=classic;html=1;rounded=0;strokeColor=#0000FF;" edge="1" parent="gNsDPr1be6KkHbp5NU5g-353">
          <mxGeometry width="50" height="50" relative="1" as="geometry">
            <mxPoint x="39.85000000000002" y="40" as="sourcePoint" />
            <mxPoint x="40" y="60" as="targetPoint" />
          </mxGeometry>
        </mxCell>
        <mxCell id="gNsDPr1be6KkHbp5NU5g-355" value="" style="shape=waypoint;sketch=0;fillStyle=solid;size=6;pointerEvents=1;points=[];fillColor=none;resizable=0;rotatable=0;perimeter=centerPerimeter;snapToPoint=1;strokeColor=#0000FF;rotation=0;" vertex="1" parent="gNsDPr1be6KkHbp5NU5g-353">
          <mxGeometry x="30" y="30" width="20" height="20" as="geometry" />
        </mxCell>
        <mxCell id="gNsDPr1be6KkHbp5NU5g-356" value="&lt;font style=&quot;font-size: 20px;&quot;&gt;3&lt;/font&gt;" style="ellipse;whiteSpace=wrap;html=1;fillColor=none;perimeterSpacing=1;strokeWidth=1;strokeColor=#0000FF;rotation=0;align=left;" vertex="1" parent="gNsDPr1be6KkHbp5NU5g-353">
          <mxGeometry width="80" height="80" as="geometry" />
        </mxCell>
        <mxCell id="gNsDPr1be6KkHbp5NU5g-357" style="edgeStyle=orthogonalEdgeStyle;rounded=0;orthogonalLoop=1;jettySize=auto;html=1;entryX=1;entryY=0;entryDx=0;entryDy=0;entryPerimeter=0;" edge="1" parent="gNsDPr1be6KkHbp5NU5g-353" source="gNsDPr1be6KkHbp5NU5g-355" target="gNsDPr1be6KkHbp5NU5g-355">
          <mxGeometry relative="1" as="geometry" />
        </mxCell>
        <mxCell id="gNsDPr1be6KkHbp5NU5g-358" value="" style="group" vertex="1" connectable="0" parent="1">
          <mxGeometry x="40" y="2600" width="240" height="240" as="geometry" />
        </mxCell>
        <mxCell id="gNsDPr1be6KkHbp5NU5g-359" value="" style="rounded=0;whiteSpace=wrap;html=1;fillColor=none;" vertex="1" parent="gNsDPr1be6KkHbp5NU5g-358">
          <mxGeometry width="240" height="240" as="geometry" />
        </mxCell>
        <mxCell id="gNsDPr1be6KkHbp5NU5g-360" value="" style="endArrow=classic;html=1;rounded=0;exitX=0;exitY=0.5;exitDx=0;exitDy=0;entryX=1;entryY=0.5;entryDx=0;entryDy=0;" edge="1" parent="gNsDPr1be6KkHbp5NU5g-358" source="gNsDPr1be6KkHbp5NU5g-359" target="gNsDPr1be6KkHbp5NU5g-359">
          <mxGeometry width="50" height="50" relative="1" as="geometry">
            <mxPoint x="890" y="560" as="sourcePoint" />
            <mxPoint x="940" y="510" as="targetPoint" />
          </mxGeometry>
        </mxCell>
        <mxCell id="gNsDPr1be6KkHbp5NU5g-361" value="&lt;div style=&quot;&quot;&gt;x&lt;/div&gt;" style="edgeLabel;html=1;align=center;verticalAlign=middle;resizable=0;points=[];" vertex="1" connectable="0" parent="gNsDPr1be6KkHbp5NU5g-360">
          <mxGeometry x="0.5192" y="1" relative="1" as="geometry">
            <mxPoint as="offset" />
          </mxGeometry>
        </mxCell>
        <mxCell id="gNsDPr1be6KkHbp5NU5g-362" value="" style="endArrow=classic;html=1;rounded=0;entryX=0.5;entryY=0;entryDx=0;entryDy=0;exitX=0.5;exitY=1;exitDx=0;exitDy=0;" edge="1" parent="gNsDPr1be6KkHbp5NU5g-358" source="gNsDPr1be6KkHbp5NU5g-359" target="gNsDPr1be6KkHbp5NU5g-359">
          <mxGeometry width="50" height="50" relative="1" as="geometry">
            <mxPoint x="140" y="330" as="sourcePoint" />
            <mxPoint x="340" y="280" as="targetPoint" />
          </mxGeometry>
        </mxCell>
        <mxCell id="gNsDPr1be6KkHbp5NU5g-363" value="y" style="edgeLabel;html=1;align=center;verticalAlign=middle;resizable=0;points=[];" vertex="1" connectable="0" parent="gNsDPr1be6KkHbp5NU5g-362">
          <mxGeometry x="0.5003" y="-1" relative="1" as="geometry">
            <mxPoint as="offset" />
          </mxGeometry>
        </mxCell>
        <mxCell id="gNsDPr1be6KkHbp5NU5g-364" value="" style="endArrow=none;dashed=1;html=1;rounded=0;exitX=0.163;exitY=0.992;exitDx=0;exitDy=0;exitPerimeter=0;strokeWidth=1;opacity=10;" edge="1" parent="gNsDPr1be6KkHbp5NU5g-358">
          <mxGeometry width="50" height="50" relative="1" as="geometry">
            <mxPoint x="40.120000000000005" y="238.08000000000004" as="sourcePoint" />
            <mxPoint x="40" as="targetPoint" />
          </mxGeometry>
        </mxCell>
        <mxCell id="gNsDPr1be6KkHbp5NU5g-365" value="" style="endArrow=none;dashed=1;html=1;rounded=0;exitX=0.163;exitY=0.992;exitDx=0;exitDy=0;exitPerimeter=0;strokeWidth=1;opacity=10;" edge="1" parent="gNsDPr1be6KkHbp5NU5g-358">
          <mxGeometry width="50" height="50" relative="1" as="geometry">
            <mxPoint x="80.12" y="238.08000000000004" as="sourcePoint" />
            <mxPoint x="80" as="targetPoint" />
          </mxGeometry>
        </mxCell>
        <mxCell id="gNsDPr1be6KkHbp5NU5g-366" value="" style="endArrow=none;dashed=1;html=1;rounded=0;exitX=0.163;exitY=0.992;exitDx=0;exitDy=0;exitPerimeter=0;strokeWidth=1;opacity=10;" edge="1" parent="gNsDPr1be6KkHbp5NU5g-358">
          <mxGeometry width="50" height="50" relative="1" as="geometry">
            <mxPoint x="160.12" y="238.08000000000004" as="sourcePoint" />
            <mxPoint x="160" as="targetPoint" />
          </mxGeometry>
        </mxCell>
        <mxCell id="gNsDPr1be6KkHbp5NU5g-367" value="" style="endArrow=none;dashed=1;html=1;rounded=0;exitX=0.163;exitY=0.992;exitDx=0;exitDy=0;exitPerimeter=0;strokeWidth=1;opacity=10;" edge="1" parent="gNsDPr1be6KkHbp5NU5g-358">
          <mxGeometry width="50" height="50" relative="1" as="geometry">
            <mxPoint x="200.12" y="238.08000000000004" as="sourcePoint" />
            <mxPoint x="200" as="targetPoint" />
          </mxGeometry>
        </mxCell>
        <mxCell id="gNsDPr1be6KkHbp5NU5g-368" value="" style="endArrow=none;dashed=1;html=1;rounded=0;strokeWidth=1;endSize=6;jumpSize=6;opacity=10;" edge="1" parent="gNsDPr1be6KkHbp5NU5g-358">
          <mxGeometry width="50" height="50" relative="1" as="geometry">
            <mxPoint y="40" as="sourcePoint" />
            <mxPoint x="240" y="40" as="targetPoint" />
          </mxGeometry>
        </mxCell>
        <mxCell id="gNsDPr1be6KkHbp5NU5g-369" value="" style="endArrow=none;dashed=1;html=1;rounded=0;strokeWidth=1;endSize=6;jumpSize=6;opacity=10;" edge="1" parent="gNsDPr1be6KkHbp5NU5g-358">
          <mxGeometry width="50" height="50" relative="1" as="geometry">
            <mxPoint y="80" as="sourcePoint" />
            <mxPoint x="240" y="80" as="targetPoint" />
          </mxGeometry>
        </mxCell>
        <mxCell id="gNsDPr1be6KkHbp5NU5g-370" value="" style="endArrow=none;dashed=1;html=1;rounded=0;strokeWidth=1;endSize=6;jumpSize=6;opacity=10;" edge="1" parent="gNsDPr1be6KkHbp5NU5g-358">
          <mxGeometry width="50" height="50" relative="1" as="geometry">
            <mxPoint y="160" as="sourcePoint" />
            <mxPoint x="240" y="160" as="targetPoint" />
          </mxGeometry>
        </mxCell>
        <mxCell id="gNsDPr1be6KkHbp5NU5g-371" value="" style="endArrow=none;dashed=1;html=1;rounded=0;strokeWidth=1;endSize=6;jumpSize=6;opacity=10;" edge="1" parent="gNsDPr1be6KkHbp5NU5g-358">
          <mxGeometry width="50" height="50" relative="1" as="geometry">
            <mxPoint y="200" as="sourcePoint" />
            <mxPoint x="240" y="200" as="targetPoint" />
          </mxGeometry>
        </mxCell>
        <mxCell id="gNsDPr1be6KkHbp5NU5g-372" value="" style="shape=waypoint;sketch=0;fillStyle=solid;size=6;pointerEvents=1;points=[];fillColor=none;resizable=0;rotatable=0;perimeter=centerPerimeter;snapToPoint=1;strokeColor=#0000FF;rotation=0;" vertex="1" parent="gNsDPr1be6KkHbp5NU5g-358">
          <mxGeometry x="110" y="110" width="20" height="20" as="geometry" />
        </mxCell>
        <mxCell id="gNsDPr1be6KkHbp5NU5g-373" value="&lt;div style=&quot;&quot;&gt;&lt;font style=&quot;font-size: 20px;&quot;&gt;4&lt;/font&gt;&lt;/div&gt;" style="ellipse;whiteSpace=wrap;html=1;fillColor=none;perimeterSpacing=1;strokeWidth=1;strokeColor=#0000FF;rotation=0;align=left;" vertex="1" parent="gNsDPr1be6KkHbp5NU5g-358">
          <mxGeometry x="80" y="80" width="80" height="80" as="geometry" />
        </mxCell>
        <mxCell id="gNsDPr1be6KkHbp5NU5g-374" value="" style="group" vertex="1" connectable="0" parent="1">
          <mxGeometry x="320" y="2600" width="240" height="240" as="geometry" />
        </mxCell>
        <mxCell id="gNsDPr1be6KkHbp5NU5g-375" value="" style="rounded=0;whiteSpace=wrap;html=1;fillColor=none;" vertex="1" parent="gNsDPr1be6KkHbp5NU5g-374">
          <mxGeometry width="240" height="240" as="geometry" />
        </mxCell>
        <mxCell id="gNsDPr1be6KkHbp5NU5g-376" value="" style="endArrow=classic;html=1;rounded=0;exitX=0;exitY=0.5;exitDx=0;exitDy=0;entryX=1;entryY=0.5;entryDx=0;entryDy=0;" edge="1" parent="gNsDPr1be6KkHbp5NU5g-374" source="gNsDPr1be6KkHbp5NU5g-375" target="gNsDPr1be6KkHbp5NU5g-375">
          <mxGeometry width="50" height="50" relative="1" as="geometry">
            <mxPoint x="890" y="560" as="sourcePoint" />
            <mxPoint x="940" y="510" as="targetPoint" />
          </mxGeometry>
        </mxCell>
        <mxCell id="gNsDPr1be6KkHbp5NU5g-377" value="x" style="edgeLabel;html=1;align=center;verticalAlign=middle;resizable=0;points=[];" vertex="1" connectable="0" parent="gNsDPr1be6KkHbp5NU5g-376">
          <mxGeometry x="0.5192" y="1" relative="1" as="geometry">
            <mxPoint as="offset" />
          </mxGeometry>
        </mxCell>
        <mxCell id="gNsDPr1be6KkHbp5NU5g-378" value="" style="endArrow=classic;html=1;rounded=0;entryX=0.5;entryY=0;entryDx=0;entryDy=0;exitX=0.5;exitY=1;exitDx=0;exitDy=0;" edge="1" parent="gNsDPr1be6KkHbp5NU5g-374" source="gNsDPr1be6KkHbp5NU5g-375" target="gNsDPr1be6KkHbp5NU5g-375">
          <mxGeometry width="50" height="50" relative="1" as="geometry">
            <mxPoint x="140" y="330" as="sourcePoint" />
            <mxPoint x="340" y="280" as="targetPoint" />
          </mxGeometry>
        </mxCell>
        <mxCell id="gNsDPr1be6KkHbp5NU5g-379" value="y" style="edgeLabel;html=1;align=center;verticalAlign=middle;resizable=0;points=[];" vertex="1" connectable="0" parent="gNsDPr1be6KkHbp5NU5g-378">
          <mxGeometry x="0.5003" y="-1" relative="1" as="geometry">
            <mxPoint as="offset" />
          </mxGeometry>
        </mxCell>
        <mxCell id="gNsDPr1be6KkHbp5NU5g-380" value="" style="endArrow=none;dashed=1;html=1;rounded=0;exitX=0.163;exitY=0.992;exitDx=0;exitDy=0;exitPerimeter=0;strokeWidth=1;opacity=10;" edge="1" parent="gNsDPr1be6KkHbp5NU5g-374">
          <mxGeometry width="50" height="50" relative="1" as="geometry">
            <mxPoint x="40.120000000000005" y="238.08000000000004" as="sourcePoint" />
            <mxPoint x="40" as="targetPoint" />
          </mxGeometry>
        </mxCell>
        <mxCell id="gNsDPr1be6KkHbp5NU5g-381" value="" style="endArrow=none;dashed=1;html=1;rounded=0;exitX=0.163;exitY=0.992;exitDx=0;exitDy=0;exitPerimeter=0;strokeWidth=1;opacity=10;" edge="1" parent="gNsDPr1be6KkHbp5NU5g-374">
          <mxGeometry width="50" height="50" relative="1" as="geometry">
            <mxPoint x="80.12" y="238.08000000000004" as="sourcePoint" />
            <mxPoint x="80" as="targetPoint" />
          </mxGeometry>
        </mxCell>
        <mxCell id="gNsDPr1be6KkHbp5NU5g-382" value="" style="endArrow=none;dashed=1;html=1;rounded=0;exitX=0.163;exitY=0.992;exitDx=0;exitDy=0;exitPerimeter=0;strokeWidth=1;opacity=10;" edge="1" parent="gNsDPr1be6KkHbp5NU5g-374">
          <mxGeometry width="50" height="50" relative="1" as="geometry">
            <mxPoint x="160.12" y="238.08000000000004" as="sourcePoint" />
            <mxPoint x="160" as="targetPoint" />
          </mxGeometry>
        </mxCell>
        <mxCell id="gNsDPr1be6KkHbp5NU5g-383" value="" style="endArrow=none;dashed=1;html=1;rounded=0;exitX=0.163;exitY=0.992;exitDx=0;exitDy=0;exitPerimeter=0;strokeWidth=1;opacity=10;" edge="1" parent="gNsDPr1be6KkHbp5NU5g-374">
          <mxGeometry width="50" height="50" relative="1" as="geometry">
            <mxPoint x="200.12" y="238.08000000000004" as="sourcePoint" />
            <mxPoint x="200" as="targetPoint" />
          </mxGeometry>
        </mxCell>
        <mxCell id="gNsDPr1be6KkHbp5NU5g-384" value="" style="endArrow=none;dashed=1;html=1;rounded=0;strokeWidth=1;endSize=6;jumpSize=6;opacity=10;" edge="1" parent="gNsDPr1be6KkHbp5NU5g-374">
          <mxGeometry width="50" height="50" relative="1" as="geometry">
            <mxPoint y="40" as="sourcePoint" />
            <mxPoint x="240" y="40" as="targetPoint" />
          </mxGeometry>
        </mxCell>
        <mxCell id="gNsDPr1be6KkHbp5NU5g-385" value="" style="endArrow=none;dashed=1;html=1;rounded=0;strokeWidth=1;endSize=6;jumpSize=6;opacity=10;" edge="1" parent="gNsDPr1be6KkHbp5NU5g-374">
          <mxGeometry width="50" height="50" relative="1" as="geometry">
            <mxPoint y="80" as="sourcePoint" />
            <mxPoint x="240" y="80" as="targetPoint" />
          </mxGeometry>
        </mxCell>
        <mxCell id="gNsDPr1be6KkHbp5NU5g-386" value="" style="endArrow=none;dashed=1;html=1;rounded=0;strokeWidth=1;endSize=6;jumpSize=6;opacity=10;" edge="1" parent="gNsDPr1be6KkHbp5NU5g-374">
          <mxGeometry width="50" height="50" relative="1" as="geometry">
            <mxPoint y="160" as="sourcePoint" />
            <mxPoint x="240" y="160" as="targetPoint" />
          </mxGeometry>
        </mxCell>
        <mxCell id="gNsDPr1be6KkHbp5NU5g-387" value="" style="endArrow=none;dashed=1;html=1;rounded=0;strokeWidth=1;endSize=6;jumpSize=6;opacity=10;" edge="1" parent="gNsDPr1be6KkHbp5NU5g-374">
          <mxGeometry width="50" height="50" relative="1" as="geometry">
            <mxPoint y="200" as="sourcePoint" />
            <mxPoint x="240" y="200" as="targetPoint" />
          </mxGeometry>
        </mxCell>
        <mxCell id="gNsDPr1be6KkHbp5NU5g-388" value="" style="group" vertex="1" connectable="0" parent="gNsDPr1be6KkHbp5NU5g-374">
          <mxGeometry x="120" y="80" width="80" height="80" as="geometry" />
        </mxCell>
        <mxCell id="gNsDPr1be6KkHbp5NU5g-389" value="" style="endArrow=classic;html=1;rounded=0;strokeColor=#0000FF;" edge="1" parent="gNsDPr1be6KkHbp5NU5g-388">
          <mxGeometry width="50" height="50" relative="1" as="geometry">
            <mxPoint x="40" y="39.870000000000005" as="sourcePoint" />
            <mxPoint x="60" y="39.870000000000005" as="targetPoint" />
          </mxGeometry>
        </mxCell>
        <mxCell id="gNsDPr1be6KkHbp5NU5g-390" value="" style="shape=waypoint;sketch=0;fillStyle=solid;size=6;pointerEvents=1;points=[];fillColor=none;resizable=0;rotatable=0;perimeter=centerPerimeter;snapToPoint=1;strokeColor=#0000FF;rotation=0;" vertex="1" parent="gNsDPr1be6KkHbp5NU5g-388">
          <mxGeometry x="30" y="30" width="20" height="20" as="geometry" />
        </mxCell>
        <mxCell id="gNsDPr1be6KkHbp5NU5g-391" value="&lt;div style=&quot;&quot;&gt;&lt;span style=&quot;font-size: 20px;&quot;&gt;1&lt;/span&gt;&lt;/div&gt;" style="ellipse;whiteSpace=wrap;html=1;fillColor=none;perimeterSpacing=1;strokeWidth=1;strokeColor=#0000FF;rotation=0;align=left;" vertex="1" parent="gNsDPr1be6KkHbp5NU5g-388">
          <mxGeometry width="80" height="80" as="geometry" />
        </mxCell>
        <mxCell id="gNsDPr1be6KkHbp5NU5g-392" value="" style="group" vertex="1" connectable="0" parent="gNsDPr1be6KkHbp5NU5g-388">
          <mxGeometry x="-40" width="80" height="80" as="geometry" />
        </mxCell>
        <mxCell id="gNsDPr1be6KkHbp5NU5g-393" value="" style="endArrow=classic;html=1;rounded=0;strokeColor=#0000FF;" edge="1" parent="gNsDPr1be6KkHbp5NU5g-392">
          <mxGeometry width="50" height="50" relative="1" as="geometry">
            <mxPoint x="39.889999999999986" y="40" as="sourcePoint" />
            <mxPoint x="39.889999999999986" y="20" as="targetPoint" />
          </mxGeometry>
        </mxCell>
        <mxCell id="gNsDPr1be6KkHbp5NU5g-394" value="" style="shape=waypoint;sketch=0;fillStyle=solid;size=6;pointerEvents=1;points=[];fillColor=none;resizable=0;rotatable=0;perimeter=centerPerimeter;snapToPoint=1;strokeColor=#0000FF;rotation=0;" vertex="1" parent="gNsDPr1be6KkHbp5NU5g-392">
          <mxGeometry x="30" y="30" width="20" height="20" as="geometry" />
        </mxCell>
        <mxCell id="gNsDPr1be6KkHbp5NU5g-395" value="&lt;font style=&quot;font-size: 20px;&quot;&gt;3&lt;/font&gt;" style="ellipse;whiteSpace=wrap;html=1;fillColor=none;perimeterSpacing=1;strokeWidth=1;strokeColor=#0000FF;rotation=0;align=left;" vertex="1" parent="gNsDPr1be6KkHbp5NU5g-392">
          <mxGeometry width="80" height="80" as="geometry" />
        </mxCell>
        <mxCell id="gNsDPr1be6KkHbp5NU5g-396" value="" style="group" vertex="1" connectable="0" parent="1">
          <mxGeometry x="600" y="2600" width="240" height="240" as="geometry" />
        </mxCell>
        <mxCell id="gNsDPr1be6KkHbp5NU5g-397" value="" style="rounded=0;whiteSpace=wrap;html=1;fillColor=none;" vertex="1" parent="gNsDPr1be6KkHbp5NU5g-396">
          <mxGeometry width="240" height="240" as="geometry" />
        </mxCell>
        <mxCell id="gNsDPr1be6KkHbp5NU5g-398" value="" style="endArrow=classic;html=1;rounded=0;exitX=0;exitY=0.5;exitDx=0;exitDy=0;entryX=1;entryY=0.5;entryDx=0;entryDy=0;" edge="1" parent="gNsDPr1be6KkHbp5NU5g-396" source="gNsDPr1be6KkHbp5NU5g-397" target="gNsDPr1be6KkHbp5NU5g-397">
          <mxGeometry width="50" height="50" relative="1" as="geometry">
            <mxPoint x="890" y="560" as="sourcePoint" />
            <mxPoint x="940" y="510" as="targetPoint" />
          </mxGeometry>
        </mxCell>
        <mxCell id="gNsDPr1be6KkHbp5NU5g-399" value="x" style="edgeLabel;html=1;align=center;verticalAlign=middle;resizable=0;points=[];" vertex="1" connectable="0" parent="gNsDPr1be6KkHbp5NU5g-398">
          <mxGeometry x="0.5192" y="1" relative="1" as="geometry">
            <mxPoint as="offset" />
          </mxGeometry>
        </mxCell>
        <mxCell id="gNsDPr1be6KkHbp5NU5g-400" value="" style="endArrow=classic;html=1;rounded=0;entryX=0.5;entryY=0;entryDx=0;entryDy=0;exitX=0.5;exitY=1;exitDx=0;exitDy=0;" edge="1" parent="gNsDPr1be6KkHbp5NU5g-396" source="gNsDPr1be6KkHbp5NU5g-397" target="gNsDPr1be6KkHbp5NU5g-397">
          <mxGeometry width="50" height="50" relative="1" as="geometry">
            <mxPoint x="140" y="330" as="sourcePoint" />
            <mxPoint x="340" y="280" as="targetPoint" />
          </mxGeometry>
        </mxCell>
        <mxCell id="gNsDPr1be6KkHbp5NU5g-401" value="y" style="edgeLabel;html=1;align=center;verticalAlign=middle;resizable=0;points=[];" vertex="1" connectable="0" parent="gNsDPr1be6KkHbp5NU5g-400">
          <mxGeometry x="0.5003" y="-1" relative="1" as="geometry">
            <mxPoint as="offset" />
          </mxGeometry>
        </mxCell>
        <mxCell id="gNsDPr1be6KkHbp5NU5g-402" value="" style="endArrow=none;dashed=1;html=1;rounded=0;exitX=0.163;exitY=0.992;exitDx=0;exitDy=0;exitPerimeter=0;strokeWidth=1;opacity=10;" edge="1" parent="gNsDPr1be6KkHbp5NU5g-396">
          <mxGeometry width="50" height="50" relative="1" as="geometry">
            <mxPoint x="40.120000000000005" y="238.08000000000004" as="sourcePoint" />
            <mxPoint x="40" as="targetPoint" />
          </mxGeometry>
        </mxCell>
        <mxCell id="gNsDPr1be6KkHbp5NU5g-403" value="" style="endArrow=none;dashed=1;html=1;rounded=0;exitX=0.163;exitY=0.992;exitDx=0;exitDy=0;exitPerimeter=0;strokeWidth=1;opacity=10;" edge="1" parent="gNsDPr1be6KkHbp5NU5g-396">
          <mxGeometry width="50" height="50" relative="1" as="geometry">
            <mxPoint x="80.12" y="238.08000000000004" as="sourcePoint" />
            <mxPoint x="80" as="targetPoint" />
          </mxGeometry>
        </mxCell>
        <mxCell id="gNsDPr1be6KkHbp5NU5g-404" value="" style="endArrow=none;dashed=1;html=1;rounded=0;exitX=0.163;exitY=0.992;exitDx=0;exitDy=0;exitPerimeter=0;strokeWidth=1;opacity=10;" edge="1" parent="gNsDPr1be6KkHbp5NU5g-396">
          <mxGeometry width="50" height="50" relative="1" as="geometry">
            <mxPoint x="160.12" y="238.08000000000004" as="sourcePoint" />
            <mxPoint x="160" as="targetPoint" />
          </mxGeometry>
        </mxCell>
        <mxCell id="gNsDPr1be6KkHbp5NU5g-405" value="" style="endArrow=none;dashed=1;html=1;rounded=0;exitX=0.163;exitY=0.992;exitDx=0;exitDy=0;exitPerimeter=0;strokeWidth=1;opacity=10;" edge="1" parent="gNsDPr1be6KkHbp5NU5g-396">
          <mxGeometry width="50" height="50" relative="1" as="geometry">
            <mxPoint x="200.12" y="238.08000000000004" as="sourcePoint" />
            <mxPoint x="200" as="targetPoint" />
          </mxGeometry>
        </mxCell>
        <mxCell id="gNsDPr1be6KkHbp5NU5g-406" value="" style="endArrow=none;dashed=1;html=1;rounded=0;strokeWidth=1;endSize=6;jumpSize=6;opacity=10;" edge="1" parent="gNsDPr1be6KkHbp5NU5g-396">
          <mxGeometry width="50" height="50" relative="1" as="geometry">
            <mxPoint y="40" as="sourcePoint" />
            <mxPoint x="240" y="40" as="targetPoint" />
          </mxGeometry>
        </mxCell>
        <mxCell id="gNsDPr1be6KkHbp5NU5g-407" value="" style="endArrow=none;dashed=1;html=1;rounded=0;strokeWidth=1;endSize=6;jumpSize=6;opacity=10;" edge="1" parent="gNsDPr1be6KkHbp5NU5g-396">
          <mxGeometry width="50" height="50" relative="1" as="geometry">
            <mxPoint y="80" as="sourcePoint" />
            <mxPoint x="240" y="80" as="targetPoint" />
          </mxGeometry>
        </mxCell>
        <mxCell id="gNsDPr1be6KkHbp5NU5g-408" value="" style="endArrow=none;dashed=1;html=1;rounded=0;strokeWidth=1;endSize=6;jumpSize=6;opacity=10;" edge="1" parent="gNsDPr1be6KkHbp5NU5g-396">
          <mxGeometry width="50" height="50" relative="1" as="geometry">
            <mxPoint y="160" as="sourcePoint" />
            <mxPoint x="240" y="160" as="targetPoint" />
          </mxGeometry>
        </mxCell>
        <mxCell id="gNsDPr1be6KkHbp5NU5g-409" value="" style="endArrow=none;dashed=1;html=1;rounded=0;strokeWidth=1;endSize=6;jumpSize=6;opacity=10;" edge="1" parent="gNsDPr1be6KkHbp5NU5g-396">
          <mxGeometry width="50" height="50" relative="1" as="geometry">
            <mxPoint y="200" as="sourcePoint" />
            <mxPoint x="240" y="200" as="targetPoint" />
          </mxGeometry>
        </mxCell>
        <mxCell id="gNsDPr1be6KkHbp5NU5g-410" value="" style="group" vertex="1" connectable="0" parent="gNsDPr1be6KkHbp5NU5g-396">
          <mxGeometry x="120" y="80" width="80" height="80" as="geometry" />
        </mxCell>
        <mxCell id="gNsDPr1be6KkHbp5NU5g-411" value="" style="endArrow=classic;html=1;rounded=0;strokeColor=#0000FF;" edge="1" parent="gNsDPr1be6KkHbp5NU5g-410">
          <mxGeometry width="50" height="50" relative="1" as="geometry">
            <mxPoint x="40" y="39.870000000000005" as="sourcePoint" />
            <mxPoint x="60" y="39.870000000000005" as="targetPoint" />
          </mxGeometry>
        </mxCell>
        <mxCell id="gNsDPr1be6KkHbp5NU5g-412" value="" style="shape=waypoint;sketch=0;fillStyle=solid;size=6;pointerEvents=1;points=[];fillColor=none;resizable=0;rotatable=0;perimeter=centerPerimeter;snapToPoint=1;strokeColor=#0000FF;rotation=0;" vertex="1" parent="gNsDPr1be6KkHbp5NU5g-410">
          <mxGeometry x="30" y="30" width="20" height="20" as="geometry" />
        </mxCell>
        <mxCell id="gNsDPr1be6KkHbp5NU5g-413" value="&lt;div style=&quot;&quot;&gt;&lt;span style=&quot;font-size: 20px;&quot;&gt;1&lt;/span&gt;&lt;/div&gt;" style="ellipse;whiteSpace=wrap;html=1;fillColor=none;perimeterSpacing=1;strokeWidth=1;strokeColor=#0000FF;rotation=0;align=left;" vertex="1" parent="gNsDPr1be6KkHbp5NU5g-410">
          <mxGeometry width="80" height="80" as="geometry" />
        </mxCell>
        <mxCell id="gNsDPr1be6KkHbp5NU5g-414" value="" style="group" vertex="1" connectable="0" parent="gNsDPr1be6KkHbp5NU5g-410">
          <mxGeometry x="-40" y="-40" width="80" height="80" as="geometry" />
        </mxCell>
        <mxCell id="gNsDPr1be6KkHbp5NU5g-415" value="" style="endArrow=classic;html=1;rounded=0;strokeColor=#0000FF;" edge="1" parent="gNsDPr1be6KkHbp5NU5g-414">
          <mxGeometry width="50" height="50" relative="1" as="geometry">
            <mxPoint x="39.889999999999986" y="40" as="sourcePoint" />
            <mxPoint x="39.889999999999986" y="20" as="targetPoint" />
          </mxGeometry>
        </mxCell>
        <mxCell id="gNsDPr1be6KkHbp5NU5g-416" value="" style="shape=waypoint;sketch=0;fillStyle=solid;size=6;pointerEvents=1;points=[];fillColor=none;resizable=0;rotatable=0;perimeter=centerPerimeter;snapToPoint=1;strokeColor=#0000FF;rotation=0;" vertex="1" parent="gNsDPr1be6KkHbp5NU5g-414">
          <mxGeometry x="30" y="30" width="20" height="20" as="geometry" />
        </mxCell>
        <mxCell id="gNsDPr1be6KkHbp5NU5g-417" value="&lt;font style=&quot;font-size: 20px;&quot;&gt;3&lt;/font&gt;" style="ellipse;whiteSpace=wrap;html=1;fillColor=none;perimeterSpacing=1;strokeWidth=1;strokeColor=#0000FF;rotation=0;align=left;" vertex="1" parent="gNsDPr1be6KkHbp5NU5g-414">
          <mxGeometry width="80" height="80" as="geometry" />
        </mxCell>
        <mxCell id="gNsDPr1be6KkHbp5NU5g-418" value="" style="group" vertex="1" connectable="0" parent="1">
          <mxGeometry x="320" y="2880" width="240" height="240" as="geometry" />
        </mxCell>
        <mxCell id="gNsDPr1be6KkHbp5NU5g-419" value="" style="rounded=0;whiteSpace=wrap;html=1;fillColor=none;" vertex="1" parent="gNsDPr1be6KkHbp5NU5g-418">
          <mxGeometry width="240" height="240" as="geometry" />
        </mxCell>
        <mxCell id="gNsDPr1be6KkHbp5NU5g-420" value="" style="endArrow=classic;html=1;rounded=0;exitX=0;exitY=0.5;exitDx=0;exitDy=0;entryX=1;entryY=0.5;entryDx=0;entryDy=0;" edge="1" parent="gNsDPr1be6KkHbp5NU5g-418" source="gNsDPr1be6KkHbp5NU5g-419" target="gNsDPr1be6KkHbp5NU5g-419">
          <mxGeometry width="50" height="50" relative="1" as="geometry">
            <mxPoint x="890" y="560" as="sourcePoint" />
            <mxPoint x="940" y="510" as="targetPoint" />
          </mxGeometry>
        </mxCell>
        <mxCell id="gNsDPr1be6KkHbp5NU5g-421" value="x" style="edgeLabel;html=1;align=center;verticalAlign=middle;resizable=0;points=[];" vertex="1" connectable="0" parent="gNsDPr1be6KkHbp5NU5g-420">
          <mxGeometry x="0.5192" y="1" relative="1" as="geometry">
            <mxPoint as="offset" />
          </mxGeometry>
        </mxCell>
        <mxCell id="gNsDPr1be6KkHbp5NU5g-422" value="" style="endArrow=classic;html=1;rounded=0;entryX=0.5;entryY=0;entryDx=0;entryDy=0;exitX=0.5;exitY=1;exitDx=0;exitDy=0;" edge="1" parent="gNsDPr1be6KkHbp5NU5g-418" source="gNsDPr1be6KkHbp5NU5g-419" target="gNsDPr1be6KkHbp5NU5g-419">
          <mxGeometry width="50" height="50" relative="1" as="geometry">
            <mxPoint x="140" y="330" as="sourcePoint" />
            <mxPoint x="340" y="280" as="targetPoint" />
          </mxGeometry>
        </mxCell>
        <mxCell id="gNsDPr1be6KkHbp5NU5g-423" value="y" style="edgeLabel;html=1;align=center;verticalAlign=middle;resizable=0;points=[];" vertex="1" connectable="0" parent="gNsDPr1be6KkHbp5NU5g-422">
          <mxGeometry x="0.5003" y="-1" relative="1" as="geometry">
            <mxPoint as="offset" />
          </mxGeometry>
        </mxCell>
        <mxCell id="gNsDPr1be6KkHbp5NU5g-424" value="" style="endArrow=none;dashed=1;html=1;rounded=0;exitX=0.163;exitY=0.992;exitDx=0;exitDy=0;exitPerimeter=0;strokeWidth=1;opacity=10;" edge="1" parent="gNsDPr1be6KkHbp5NU5g-418">
          <mxGeometry width="50" height="50" relative="1" as="geometry">
            <mxPoint x="40.120000000000005" y="238.08000000000004" as="sourcePoint" />
            <mxPoint x="40" as="targetPoint" />
          </mxGeometry>
        </mxCell>
        <mxCell id="gNsDPr1be6KkHbp5NU5g-425" value="" style="endArrow=none;dashed=1;html=1;rounded=0;exitX=0.163;exitY=0.992;exitDx=0;exitDy=0;exitPerimeter=0;strokeWidth=1;opacity=10;" edge="1" parent="gNsDPr1be6KkHbp5NU5g-418">
          <mxGeometry width="50" height="50" relative="1" as="geometry">
            <mxPoint x="80.12" y="238.08000000000004" as="sourcePoint" />
            <mxPoint x="80" as="targetPoint" />
          </mxGeometry>
        </mxCell>
        <mxCell id="gNsDPr1be6KkHbp5NU5g-426" value="" style="endArrow=none;dashed=1;html=1;rounded=0;exitX=0.163;exitY=0.992;exitDx=0;exitDy=0;exitPerimeter=0;strokeWidth=1;opacity=10;" edge="1" parent="gNsDPr1be6KkHbp5NU5g-418">
          <mxGeometry width="50" height="50" relative="1" as="geometry">
            <mxPoint x="160.12" y="238.08000000000004" as="sourcePoint" />
            <mxPoint x="160" as="targetPoint" />
          </mxGeometry>
        </mxCell>
        <mxCell id="gNsDPr1be6KkHbp5NU5g-427" value="" style="endArrow=none;dashed=1;html=1;rounded=0;exitX=0.163;exitY=0.992;exitDx=0;exitDy=0;exitPerimeter=0;strokeWidth=1;opacity=10;" edge="1" parent="gNsDPr1be6KkHbp5NU5g-418">
          <mxGeometry width="50" height="50" relative="1" as="geometry">
            <mxPoint x="200.12" y="238.08000000000004" as="sourcePoint" />
            <mxPoint x="200" as="targetPoint" />
          </mxGeometry>
        </mxCell>
        <mxCell id="gNsDPr1be6KkHbp5NU5g-428" value="" style="endArrow=none;dashed=1;html=1;rounded=0;strokeWidth=1;endSize=6;jumpSize=6;opacity=10;" edge="1" parent="gNsDPr1be6KkHbp5NU5g-418">
          <mxGeometry width="50" height="50" relative="1" as="geometry">
            <mxPoint y="40" as="sourcePoint" />
            <mxPoint x="240" y="40" as="targetPoint" />
          </mxGeometry>
        </mxCell>
        <mxCell id="gNsDPr1be6KkHbp5NU5g-429" value="" style="endArrow=none;dashed=1;html=1;rounded=0;strokeWidth=1;endSize=6;jumpSize=6;opacity=10;" edge="1" parent="gNsDPr1be6KkHbp5NU5g-418">
          <mxGeometry width="50" height="50" relative="1" as="geometry">
            <mxPoint y="80" as="sourcePoint" />
            <mxPoint x="240" y="80" as="targetPoint" />
          </mxGeometry>
        </mxCell>
        <mxCell id="gNsDPr1be6KkHbp5NU5g-430" value="" style="endArrow=none;dashed=1;html=1;rounded=0;strokeWidth=1;endSize=6;jumpSize=6;opacity=10;" edge="1" parent="gNsDPr1be6KkHbp5NU5g-418">
          <mxGeometry width="50" height="50" relative="1" as="geometry">
            <mxPoint y="160" as="sourcePoint" />
            <mxPoint x="240" y="160" as="targetPoint" />
          </mxGeometry>
        </mxCell>
        <mxCell id="gNsDPr1be6KkHbp5NU5g-431" value="" style="endArrow=none;dashed=1;html=1;rounded=0;strokeWidth=1;endSize=6;jumpSize=6;opacity=10;" edge="1" parent="gNsDPr1be6KkHbp5NU5g-418">
          <mxGeometry width="50" height="50" relative="1" as="geometry">
            <mxPoint y="200" as="sourcePoint" />
            <mxPoint x="240" y="200" as="targetPoint" />
          </mxGeometry>
        </mxCell>
        <mxCell id="gNsDPr1be6KkHbp5NU5g-432" value="" style="group" vertex="1" connectable="0" parent="gNsDPr1be6KkHbp5NU5g-418">
          <mxGeometry x="160" y="80" width="80" height="80" as="geometry" />
        </mxCell>
        <mxCell id="gNsDPr1be6KkHbp5NU5g-433" value="" style="endArrow=classic;html=1;rounded=0;strokeColor=#0000FF;" edge="1" parent="gNsDPr1be6KkHbp5NU5g-432">
          <mxGeometry width="50" height="50" relative="1" as="geometry">
            <mxPoint x="40" y="39.870000000000005" as="sourcePoint" />
            <mxPoint x="60" y="39.870000000000005" as="targetPoint" />
          </mxGeometry>
        </mxCell>
        <mxCell id="gNsDPr1be6KkHbp5NU5g-434" value="" style="shape=waypoint;sketch=0;fillStyle=solid;size=6;pointerEvents=1;points=[];fillColor=none;resizable=0;rotatable=0;perimeter=centerPerimeter;snapToPoint=1;strokeColor=#0000FF;rotation=0;" vertex="1" parent="gNsDPr1be6KkHbp5NU5g-432">
          <mxGeometry x="30" y="30" width="20" height="20" as="geometry" />
        </mxCell>
        <mxCell id="gNsDPr1be6KkHbp5NU5g-435" value="&lt;div style=&quot;&quot;&gt;&lt;span style=&quot;font-size: 20px;&quot;&gt;1&lt;/span&gt;&lt;/div&gt;" style="ellipse;whiteSpace=wrap;html=1;fillColor=none;perimeterSpacing=1;strokeWidth=1;strokeColor=#0000FF;rotation=0;align=left;" vertex="1" parent="gNsDPr1be6KkHbp5NU5g-432">
          <mxGeometry width="80" height="80" as="geometry" />
        </mxCell>
        <mxCell id="gNsDPr1be6KkHbp5NU5g-436" value="" style="group" vertex="1" connectable="0" parent="gNsDPr1be6KkHbp5NU5g-418">
          <mxGeometry x="80" y="40" width="80" height="80" as="geometry" />
        </mxCell>
        <mxCell id="gNsDPr1be6KkHbp5NU5g-437" value="" style="endArrow=classic;html=1;rounded=0;strokeColor=#0000FF;" edge="1" parent="gNsDPr1be6KkHbp5NU5g-436">
          <mxGeometry width="50" height="50" relative="1" as="geometry">
            <mxPoint x="39.85000000000002" y="40" as="sourcePoint" />
            <mxPoint x="40" y="60" as="targetPoint" />
          </mxGeometry>
        </mxCell>
        <mxCell id="gNsDPr1be6KkHbp5NU5g-438" value="" style="shape=waypoint;sketch=0;fillStyle=solid;size=6;pointerEvents=1;points=[];fillColor=none;resizable=0;rotatable=0;perimeter=centerPerimeter;snapToPoint=1;strokeColor=#0000FF;rotation=0;" vertex="1" parent="gNsDPr1be6KkHbp5NU5g-436">
          <mxGeometry x="30" y="30" width="20" height="20" as="geometry" />
        </mxCell>
        <mxCell id="gNsDPr1be6KkHbp5NU5g-439" value="&lt;font style=&quot;font-size: 20px;&quot;&gt;3&lt;/font&gt;" style="ellipse;whiteSpace=wrap;html=1;fillColor=none;perimeterSpacing=1;strokeWidth=1;strokeColor=#0000FF;rotation=0;align=left;" vertex="1" parent="gNsDPr1be6KkHbp5NU5g-436">
          <mxGeometry width="80" height="80" as="geometry" />
        </mxCell>
        <mxCell id="gNsDPr1be6KkHbp5NU5g-440" style="edgeStyle=orthogonalEdgeStyle;rounded=0;orthogonalLoop=1;jettySize=auto;html=1;entryX=1;entryY=0;entryDx=0;entryDy=0;entryPerimeter=0;" edge="1" parent="gNsDPr1be6KkHbp5NU5g-436" source="gNsDPr1be6KkHbp5NU5g-438" target="gNsDPr1be6KkHbp5NU5g-438">
          <mxGeometry relative="1" as="geometry" />
        </mxCell>
        <mxCell id="gNsDPr1be6KkHbp5NU5g-441" value="" style="group" vertex="1" connectable="0" parent="1">
          <mxGeometry x="600" y="2880" width="240" height="240" as="geometry" />
        </mxCell>
        <mxCell id="gNsDPr1be6KkHbp5NU5g-442" value="" style="rounded=0;whiteSpace=wrap;html=1;fillColor=none;" vertex="1" parent="gNsDPr1be6KkHbp5NU5g-441">
          <mxGeometry width="240" height="240" as="geometry" />
        </mxCell>
        <mxCell id="gNsDPr1be6KkHbp5NU5g-443" value="" style="endArrow=classic;html=1;rounded=0;exitX=0;exitY=0.5;exitDx=0;exitDy=0;entryX=1;entryY=0.5;entryDx=0;entryDy=0;" edge="1" parent="gNsDPr1be6KkHbp5NU5g-441" source="gNsDPr1be6KkHbp5NU5g-442" target="gNsDPr1be6KkHbp5NU5g-442">
          <mxGeometry width="50" height="50" relative="1" as="geometry">
            <mxPoint x="890" y="560" as="sourcePoint" />
            <mxPoint x="940" y="510" as="targetPoint" />
          </mxGeometry>
        </mxCell>
        <mxCell id="gNsDPr1be6KkHbp5NU5g-444" value="x" style="edgeLabel;html=1;align=center;verticalAlign=middle;resizable=0;points=[];" vertex="1" connectable="0" parent="gNsDPr1be6KkHbp5NU5g-443">
          <mxGeometry x="0.5192" y="1" relative="1" as="geometry">
            <mxPoint as="offset" />
          </mxGeometry>
        </mxCell>
        <mxCell id="gNsDPr1be6KkHbp5NU5g-445" value="" style="endArrow=classic;html=1;rounded=0;entryX=0.5;entryY=0;entryDx=0;entryDy=0;exitX=0.5;exitY=1;exitDx=0;exitDy=0;" edge="1" parent="gNsDPr1be6KkHbp5NU5g-441" source="gNsDPr1be6KkHbp5NU5g-442" target="gNsDPr1be6KkHbp5NU5g-442">
          <mxGeometry width="50" height="50" relative="1" as="geometry">
            <mxPoint x="140" y="330" as="sourcePoint" />
            <mxPoint x="340" y="280" as="targetPoint" />
          </mxGeometry>
        </mxCell>
        <mxCell id="gNsDPr1be6KkHbp5NU5g-446" value="y" style="edgeLabel;html=1;align=center;verticalAlign=middle;resizable=0;points=[];" vertex="1" connectable="0" parent="gNsDPr1be6KkHbp5NU5g-445">
          <mxGeometry x="0.5003" y="-1" relative="1" as="geometry">
            <mxPoint as="offset" />
          </mxGeometry>
        </mxCell>
        <mxCell id="gNsDPr1be6KkHbp5NU5g-447" value="" style="endArrow=none;dashed=1;html=1;rounded=0;exitX=0.163;exitY=0.992;exitDx=0;exitDy=0;exitPerimeter=0;strokeWidth=1;opacity=10;" edge="1" parent="gNsDPr1be6KkHbp5NU5g-441">
          <mxGeometry width="50" height="50" relative="1" as="geometry">
            <mxPoint x="40.120000000000005" y="238.08000000000004" as="sourcePoint" />
            <mxPoint x="40" as="targetPoint" />
          </mxGeometry>
        </mxCell>
        <mxCell id="gNsDPr1be6KkHbp5NU5g-448" value="" style="endArrow=none;dashed=1;html=1;rounded=0;exitX=0.163;exitY=0.992;exitDx=0;exitDy=0;exitPerimeter=0;strokeWidth=1;opacity=10;" edge="1" parent="gNsDPr1be6KkHbp5NU5g-441">
          <mxGeometry width="50" height="50" relative="1" as="geometry">
            <mxPoint x="80.12" y="238.08000000000004" as="sourcePoint" />
            <mxPoint x="80" as="targetPoint" />
          </mxGeometry>
        </mxCell>
        <mxCell id="gNsDPr1be6KkHbp5NU5g-449" value="" style="endArrow=none;dashed=1;html=1;rounded=0;exitX=0.163;exitY=0.992;exitDx=0;exitDy=0;exitPerimeter=0;strokeWidth=1;opacity=10;" edge="1" parent="gNsDPr1be6KkHbp5NU5g-441">
          <mxGeometry width="50" height="50" relative="1" as="geometry">
            <mxPoint x="160.12" y="238.08000000000004" as="sourcePoint" />
            <mxPoint x="160" as="targetPoint" />
          </mxGeometry>
        </mxCell>
        <mxCell id="gNsDPr1be6KkHbp5NU5g-450" value="" style="endArrow=none;dashed=1;html=1;rounded=0;exitX=0.163;exitY=0.992;exitDx=0;exitDy=0;exitPerimeter=0;strokeWidth=1;opacity=10;" edge="1" parent="gNsDPr1be6KkHbp5NU5g-441">
          <mxGeometry width="50" height="50" relative="1" as="geometry">
            <mxPoint x="200.12" y="238.08000000000004" as="sourcePoint" />
            <mxPoint x="200" as="targetPoint" />
          </mxGeometry>
        </mxCell>
        <mxCell id="gNsDPr1be6KkHbp5NU5g-451" value="" style="endArrow=none;dashed=1;html=1;rounded=0;strokeWidth=1;endSize=6;jumpSize=6;opacity=10;" edge="1" parent="gNsDPr1be6KkHbp5NU5g-441">
          <mxGeometry width="50" height="50" relative="1" as="geometry">
            <mxPoint y="40" as="sourcePoint" />
            <mxPoint x="240" y="40" as="targetPoint" />
          </mxGeometry>
        </mxCell>
        <mxCell id="gNsDPr1be6KkHbp5NU5g-452" value="" style="endArrow=none;dashed=1;html=1;rounded=0;strokeWidth=1;endSize=6;jumpSize=6;opacity=10;" edge="1" parent="gNsDPr1be6KkHbp5NU5g-441">
          <mxGeometry width="50" height="50" relative="1" as="geometry">
            <mxPoint y="80" as="sourcePoint" />
            <mxPoint x="240" y="80" as="targetPoint" />
          </mxGeometry>
        </mxCell>
        <mxCell id="gNsDPr1be6KkHbp5NU5g-453" value="" style="endArrow=none;dashed=1;html=1;rounded=0;strokeWidth=1;endSize=6;jumpSize=6;opacity=10;" edge="1" parent="gNsDPr1be6KkHbp5NU5g-441">
          <mxGeometry width="50" height="50" relative="1" as="geometry">
            <mxPoint y="160" as="sourcePoint" />
            <mxPoint x="240" y="160" as="targetPoint" />
          </mxGeometry>
        </mxCell>
        <mxCell id="gNsDPr1be6KkHbp5NU5g-454" value="" style="endArrow=none;dashed=1;html=1;rounded=0;strokeWidth=1;endSize=6;jumpSize=6;opacity=10;" edge="1" parent="gNsDPr1be6KkHbp5NU5g-441">
          <mxGeometry width="50" height="50" relative="1" as="geometry">
            <mxPoint y="200" as="sourcePoint" />
            <mxPoint x="240" y="200" as="targetPoint" />
          </mxGeometry>
        </mxCell>
        <mxCell id="gNsDPr1be6KkHbp5NU5g-455" value="" style="group" vertex="1" connectable="0" parent="gNsDPr1be6KkHbp5NU5g-441">
          <mxGeometry x="160" y="80" width="80" height="80" as="geometry" />
        </mxCell>
        <mxCell id="gNsDPr1be6KkHbp5NU5g-456" value="" style="endArrow=classic;html=1;rounded=0;strokeColor=#0000FF;" edge="1" parent="gNsDPr1be6KkHbp5NU5g-455">
          <mxGeometry width="50" height="50" relative="1" as="geometry">
            <mxPoint x="40" y="39.860000000000014" as="sourcePoint" />
            <mxPoint x="20" y="39.860000000000014" as="targetPoint" />
          </mxGeometry>
        </mxCell>
        <mxCell id="gNsDPr1be6KkHbp5NU5g-457" value="" style="shape=waypoint;sketch=0;fillStyle=solid;size=6;pointerEvents=1;points=[];fillColor=none;resizable=0;rotatable=0;perimeter=centerPerimeter;snapToPoint=1;strokeColor=#0000FF;rotation=0;" vertex="1" parent="gNsDPr1be6KkHbp5NU5g-455">
          <mxGeometry x="30" y="30" width="20" height="20" as="geometry" />
        </mxCell>
        <mxCell id="gNsDPr1be6KkHbp5NU5g-458" value="&lt;font style=&quot;font-size: 20px;&quot;&gt;1&lt;/font&gt;" style="ellipse;whiteSpace=wrap;html=1;fillColor=none;perimeterSpacing=1;strokeWidth=1;strokeColor=#0000FF;rotation=0;align=right;" vertex="1" parent="gNsDPr1be6KkHbp5NU5g-455">
          <mxGeometry width="80" height="80" as="geometry" />
        </mxCell>
        <mxCell id="gNsDPr1be6KkHbp5NU5g-459" value="" style="group" vertex="1" connectable="0" parent="gNsDPr1be6KkHbp5NU5g-441">
          <mxGeometry x="80" y="80" width="80" height="80" as="geometry" />
        </mxCell>
        <mxCell id="gNsDPr1be6KkHbp5NU5g-460" value="" style="endArrow=classic;html=1;rounded=0;strokeColor=#0000FF;" edge="1" parent="gNsDPr1be6KkHbp5NU5g-459">
          <mxGeometry width="50" height="50" relative="1" as="geometry">
            <mxPoint x="39.85000000000002" y="40" as="sourcePoint" />
            <mxPoint x="40" y="60" as="targetPoint" />
          </mxGeometry>
        </mxCell>
        <mxCell id="gNsDPr1be6KkHbp5NU5g-461" value="" style="shape=waypoint;sketch=0;fillStyle=solid;size=6;pointerEvents=1;points=[];fillColor=none;resizable=0;rotatable=0;perimeter=centerPerimeter;snapToPoint=1;strokeColor=#0000FF;rotation=0;" vertex="1" parent="gNsDPr1be6KkHbp5NU5g-459">
          <mxGeometry x="30" y="30" width="20" height="20" as="geometry" />
        </mxCell>
        <mxCell id="gNsDPr1be6KkHbp5NU5g-462" value="&lt;font style=&quot;font-size: 20px;&quot;&gt;3&lt;/font&gt;" style="ellipse;whiteSpace=wrap;html=1;fillColor=none;perimeterSpacing=1;strokeWidth=1;strokeColor=#0000FF;rotation=0;align=left;" vertex="1" parent="gNsDPr1be6KkHbp5NU5g-459">
          <mxGeometry width="80" height="80" as="geometry" />
        </mxCell>
        <mxCell id="gNsDPr1be6KkHbp5NU5g-463" style="edgeStyle=orthogonalEdgeStyle;rounded=0;orthogonalLoop=1;jettySize=auto;html=1;entryX=1;entryY=0;entryDx=0;entryDy=0;entryPerimeter=0;" edge="1" parent="gNsDPr1be6KkHbp5NU5g-459" source="gNsDPr1be6KkHbp5NU5g-461" target="gNsDPr1be6KkHbp5NU5g-461">
          <mxGeometry relative="1" as="geometry" />
        </mxCell>
        <mxCell id="gNsDPr1be6KkHbp5NU5g-464" value="" style="group" vertex="1" connectable="0" parent="1">
          <mxGeometry x="40" y="2880" width="240" height="240" as="geometry" />
        </mxCell>
        <mxCell id="gNsDPr1be6KkHbp5NU5g-465" value="" style="rounded=0;whiteSpace=wrap;html=1;fillColor=none;" vertex="1" parent="gNsDPr1be6KkHbp5NU5g-464">
          <mxGeometry width="240" height="240" as="geometry" />
        </mxCell>
        <mxCell id="gNsDPr1be6KkHbp5NU5g-466" value="" style="endArrow=classic;html=1;rounded=0;exitX=0;exitY=0.5;exitDx=0;exitDy=0;entryX=1;entryY=0.5;entryDx=0;entryDy=0;" edge="1" parent="gNsDPr1be6KkHbp5NU5g-464" source="gNsDPr1be6KkHbp5NU5g-465" target="gNsDPr1be6KkHbp5NU5g-465">
          <mxGeometry width="50" height="50" relative="1" as="geometry">
            <mxPoint x="890" y="560" as="sourcePoint" />
            <mxPoint x="940" y="510" as="targetPoint" />
          </mxGeometry>
        </mxCell>
        <mxCell id="gNsDPr1be6KkHbp5NU5g-467" value="x" style="edgeLabel;html=1;align=center;verticalAlign=middle;resizable=0;points=[];" vertex="1" connectable="0" parent="gNsDPr1be6KkHbp5NU5g-466">
          <mxGeometry x="0.5192" y="1" relative="1" as="geometry">
            <mxPoint as="offset" />
          </mxGeometry>
        </mxCell>
        <mxCell id="gNsDPr1be6KkHbp5NU5g-468" value="" style="endArrow=classic;html=1;rounded=0;entryX=0.5;entryY=0;entryDx=0;entryDy=0;exitX=0.5;exitY=1;exitDx=0;exitDy=0;" edge="1" parent="gNsDPr1be6KkHbp5NU5g-464" source="gNsDPr1be6KkHbp5NU5g-465" target="gNsDPr1be6KkHbp5NU5g-465">
          <mxGeometry width="50" height="50" relative="1" as="geometry">
            <mxPoint x="140" y="330" as="sourcePoint" />
            <mxPoint x="340" y="280" as="targetPoint" />
          </mxGeometry>
        </mxCell>
        <mxCell id="gNsDPr1be6KkHbp5NU5g-469" value="y" style="edgeLabel;html=1;align=center;verticalAlign=middle;resizable=0;points=[];" vertex="1" connectable="0" parent="gNsDPr1be6KkHbp5NU5g-468">
          <mxGeometry x="0.5003" y="-1" relative="1" as="geometry">
            <mxPoint as="offset" />
          </mxGeometry>
        </mxCell>
        <mxCell id="gNsDPr1be6KkHbp5NU5g-470" value="" style="endArrow=none;dashed=1;html=1;rounded=0;exitX=0.163;exitY=0.992;exitDx=0;exitDy=0;exitPerimeter=0;strokeWidth=1;opacity=10;" edge="1" parent="gNsDPr1be6KkHbp5NU5g-464">
          <mxGeometry width="50" height="50" relative="1" as="geometry">
            <mxPoint x="40.120000000000005" y="238.08000000000004" as="sourcePoint" />
            <mxPoint x="40" as="targetPoint" />
          </mxGeometry>
        </mxCell>
        <mxCell id="gNsDPr1be6KkHbp5NU5g-471" value="" style="endArrow=none;dashed=1;html=1;rounded=0;exitX=0.163;exitY=0.992;exitDx=0;exitDy=0;exitPerimeter=0;strokeWidth=1;opacity=10;" edge="1" parent="gNsDPr1be6KkHbp5NU5g-464">
          <mxGeometry width="50" height="50" relative="1" as="geometry">
            <mxPoint x="80.12" y="238.08000000000004" as="sourcePoint" />
            <mxPoint x="80" as="targetPoint" />
          </mxGeometry>
        </mxCell>
        <mxCell id="gNsDPr1be6KkHbp5NU5g-472" value="" style="endArrow=none;dashed=1;html=1;rounded=0;exitX=0.163;exitY=0.992;exitDx=0;exitDy=0;exitPerimeter=0;strokeWidth=1;opacity=10;" edge="1" parent="gNsDPr1be6KkHbp5NU5g-464">
          <mxGeometry width="50" height="50" relative="1" as="geometry">
            <mxPoint x="160.12" y="238.08000000000004" as="sourcePoint" />
            <mxPoint x="160" as="targetPoint" />
          </mxGeometry>
        </mxCell>
        <mxCell id="gNsDPr1be6KkHbp5NU5g-473" value="" style="endArrow=none;dashed=1;html=1;rounded=0;exitX=0.163;exitY=0.992;exitDx=0;exitDy=0;exitPerimeter=0;strokeWidth=1;opacity=10;" edge="1" parent="gNsDPr1be6KkHbp5NU5g-464">
          <mxGeometry width="50" height="50" relative="1" as="geometry">
            <mxPoint x="200.12" y="238.08000000000004" as="sourcePoint" />
            <mxPoint x="200" as="targetPoint" />
          </mxGeometry>
        </mxCell>
        <mxCell id="gNsDPr1be6KkHbp5NU5g-474" value="" style="endArrow=none;dashed=1;html=1;rounded=0;strokeWidth=1;endSize=6;jumpSize=6;opacity=10;" edge="1" parent="gNsDPr1be6KkHbp5NU5g-464">
          <mxGeometry width="50" height="50" relative="1" as="geometry">
            <mxPoint y="40" as="sourcePoint" />
            <mxPoint x="240" y="40" as="targetPoint" />
          </mxGeometry>
        </mxCell>
        <mxCell id="gNsDPr1be6KkHbp5NU5g-475" value="" style="endArrow=none;dashed=1;html=1;rounded=0;strokeWidth=1;endSize=6;jumpSize=6;opacity=10;" edge="1" parent="gNsDPr1be6KkHbp5NU5g-464">
          <mxGeometry width="50" height="50" relative="1" as="geometry">
            <mxPoint y="80" as="sourcePoint" />
            <mxPoint x="240" y="80" as="targetPoint" />
          </mxGeometry>
        </mxCell>
        <mxCell id="gNsDPr1be6KkHbp5NU5g-476" value="" style="endArrow=none;dashed=1;html=1;rounded=0;strokeWidth=1;endSize=6;jumpSize=6;opacity=10;" edge="1" parent="gNsDPr1be6KkHbp5NU5g-464">
          <mxGeometry width="50" height="50" relative="1" as="geometry">
            <mxPoint y="160" as="sourcePoint" />
            <mxPoint x="240" y="160" as="targetPoint" />
          </mxGeometry>
        </mxCell>
        <mxCell id="gNsDPr1be6KkHbp5NU5g-477" value="" style="endArrow=none;dashed=1;html=1;rounded=0;strokeWidth=1;endSize=6;jumpSize=6;opacity=10;" edge="1" parent="gNsDPr1be6KkHbp5NU5g-464">
          <mxGeometry width="50" height="50" relative="1" as="geometry">
            <mxPoint y="200" as="sourcePoint" />
            <mxPoint x="240" y="200" as="targetPoint" />
          </mxGeometry>
        </mxCell>
        <mxCell id="gNsDPr1be6KkHbp5NU5g-478" value="" style="group" vertex="1" connectable="0" parent="gNsDPr1be6KkHbp5NU5g-464">
          <mxGeometry x="120" y="80" width="80" height="80" as="geometry" />
        </mxCell>
        <mxCell id="gNsDPr1be6KkHbp5NU5g-479" value="" style="endArrow=classic;html=1;rounded=0;strokeColor=#0000FF;" edge="1" parent="gNsDPr1be6KkHbp5NU5g-478">
          <mxGeometry width="50" height="50" relative="1" as="geometry">
            <mxPoint x="40" y="39.870000000000005" as="sourcePoint" />
            <mxPoint x="60" y="39.870000000000005" as="targetPoint" />
          </mxGeometry>
        </mxCell>
        <mxCell id="gNsDPr1be6KkHbp5NU5g-480" value="" style="shape=waypoint;sketch=0;fillStyle=solid;size=6;pointerEvents=1;points=[];fillColor=none;resizable=0;rotatable=0;perimeter=centerPerimeter;snapToPoint=1;strokeColor=#0000FF;rotation=0;" vertex="1" parent="gNsDPr1be6KkHbp5NU5g-478">
          <mxGeometry x="30" y="30" width="20" height="20" as="geometry" />
        </mxCell>
        <mxCell id="gNsDPr1be6KkHbp5NU5g-481" value="&lt;div style=&quot;&quot;&gt;&lt;span style=&quot;font-size: 20px;&quot;&gt;1&lt;/span&gt;&lt;/div&gt;" style="ellipse;whiteSpace=wrap;html=1;fillColor=none;perimeterSpacing=1;strokeWidth=1;strokeColor=#0000FF;rotation=0;align=left;" vertex="1" parent="gNsDPr1be6KkHbp5NU5g-478">
          <mxGeometry width="80" height="80" as="geometry" />
        </mxCell>
        <mxCell id="gNsDPr1be6KkHbp5NU5g-482" value="" style="group" vertex="1" connectable="0" parent="gNsDPr1be6KkHbp5NU5g-478">
          <mxGeometry x="-40" y="-40" width="80" height="80" as="geometry" />
        </mxCell>
        <mxCell id="gNsDPr1be6KkHbp5NU5g-483" value="" style="endArrow=classic;html=1;rounded=0;strokeColor=#0000FF;" edge="1" parent="gNsDPr1be6KkHbp5NU5g-482">
          <mxGeometry width="50" height="50" relative="1" as="geometry">
            <mxPoint x="39.85000000000002" y="40" as="sourcePoint" />
            <mxPoint x="40" y="60" as="targetPoint" />
          </mxGeometry>
        </mxCell>
        <mxCell id="gNsDPr1be6KkHbp5NU5g-484" value="" style="shape=waypoint;sketch=0;fillStyle=solid;size=6;pointerEvents=1;points=[];fillColor=none;resizable=0;rotatable=0;perimeter=centerPerimeter;snapToPoint=1;strokeColor=#0000FF;rotation=0;" vertex="1" parent="gNsDPr1be6KkHbp5NU5g-482">
          <mxGeometry x="30" y="30" width="20" height="20" as="geometry" />
        </mxCell>
        <mxCell id="gNsDPr1be6KkHbp5NU5g-485" value="&lt;font style=&quot;font-size: 20px;&quot;&gt;3&lt;/font&gt;" style="ellipse;whiteSpace=wrap;html=1;fillColor=none;perimeterSpacing=1;strokeWidth=1;strokeColor=#0000FF;rotation=0;align=left;" vertex="1" parent="gNsDPr1be6KkHbp5NU5g-482">
          <mxGeometry width="80" height="80" as="geometry" />
        </mxCell>
        <mxCell id="gNsDPr1be6KkHbp5NU5g-486" style="edgeStyle=orthogonalEdgeStyle;rounded=0;orthogonalLoop=1;jettySize=auto;html=1;entryX=1;entryY=0;entryDx=0;entryDy=0;entryPerimeter=0;" edge="1" parent="gNsDPr1be6KkHbp5NU5g-482" source="gNsDPr1be6KkHbp5NU5g-484" target="gNsDPr1be6KkHbp5NU5g-484">
          <mxGeometry relative="1" as="geometry" />
        </mxCell>
        <mxCell id="gNsDPr1be6KkHbp5NU5g-489" value="&lt;font style=&quot;font-size: 120px;&quot;&gt;Templates&lt;/font&gt;" style="text;strokeColor=none;fillColor=none;html=1;fontSize=24;fontStyle=1;verticalAlign=middle;align=center;" vertex="1" parent="1">
          <mxGeometry x="280" y="390" width="100" height="40" as="geometry" />
        </mxCell>
        <mxCell id="gNsDPr1be6KkHbp5NU5g-491" value="&lt;span style=&quot;font-size: 120px;&quot;&gt;Reconnection&lt;/span&gt;" style="text;strokeColor=none;fillColor=none;html=1;fontSize=24;fontStyle=1;verticalAlign=middle;align=center;" vertex="1" parent="1">
          <mxGeometry x="390" y="1250" width="100" height="40" as="geometry" />
        </mxCell>
        <mxCell id="gNsDPr1be6KkHbp5NU5g-492" value="&lt;span style=&quot;font-size: 120px;&quot;&gt;Lost connection&lt;/span&gt;" style="text;strokeColor=none;fillColor=none;html=1;fontSize=24;fontStyle=1;verticalAlign=middle;align=center;" vertex="1" parent="1">
          <mxGeometry x="470" y="2420" width="100" height="40" as="geometry" />
        </mxCell>
        <mxCell id="gNsDPr1be6KkHbp5NU5g-493" value="" style="group" vertex="1" connectable="0" parent="1">
          <mxGeometry x="480" y="1840" width="80" height="80" as="geometry" />
        </mxCell>
        <mxCell id="gNsDPr1be6KkHbp5NU5g-494" value="" style="endArrow=classic;html=1;rounded=0;strokeColor=#0000FF;" edge="1" parent="gNsDPr1be6KkHbp5NU5g-493">
          <mxGeometry width="50" height="50" relative="1" as="geometry">
            <mxPoint x="40" y="39.860000000000014" as="sourcePoint" />
            <mxPoint x="20" y="39.860000000000014" as="targetPoint" />
          </mxGeometry>
        </mxCell>
        <mxCell id="gNsDPr1be6KkHbp5NU5g-495" value="" style="shape=waypoint;sketch=0;fillStyle=solid;size=6;pointerEvents=1;points=[];fillColor=none;resizable=0;rotatable=0;perimeter=centerPerimeter;snapToPoint=1;strokeColor=#0000FF;rotation=0;" vertex="1" parent="gNsDPr1be6KkHbp5NU5g-493">
          <mxGeometry x="30" y="30" width="20" height="20" as="geometry" />
        </mxCell>
        <mxCell id="gNsDPr1be6KkHbp5NU5g-496" value="&lt;font style=&quot;font-size: 20px;&quot;&gt;1&lt;/font&gt;" style="ellipse;whiteSpace=wrap;html=1;fillColor=none;perimeterSpacing=1;strokeWidth=1;strokeColor=#0000FF;rotation=0;align=right;" vertex="1" parent="gNsDPr1be6KkHbp5NU5g-493">
          <mxGeometry width="80" height="80" as="geometry" />
        </mxCell>
        <mxCell id="gNsDPr1be6KkHbp5NU5g-497" value="" style="group" vertex="1" connectable="0" parent="1">
          <mxGeometry x="40" y="3160" width="240" height="240" as="geometry" />
        </mxCell>
        <mxCell id="gNsDPr1be6KkHbp5NU5g-498" value="" style="rounded=0;whiteSpace=wrap;html=1;fillColor=none;" vertex="1" parent="gNsDPr1be6KkHbp5NU5g-497">
          <mxGeometry width="240" height="240" as="geometry" />
        </mxCell>
        <mxCell id="gNsDPr1be6KkHbp5NU5g-499" value="" style="endArrow=classic;html=1;rounded=0;exitX=0;exitY=0.5;exitDx=0;exitDy=0;entryX=1;entryY=0.5;entryDx=0;entryDy=0;" edge="1" parent="gNsDPr1be6KkHbp5NU5g-497" source="gNsDPr1be6KkHbp5NU5g-498" target="gNsDPr1be6KkHbp5NU5g-498">
          <mxGeometry width="50" height="50" relative="1" as="geometry">
            <mxPoint x="890" y="560" as="sourcePoint" />
            <mxPoint x="940" y="510" as="targetPoint" />
          </mxGeometry>
        </mxCell>
        <mxCell id="gNsDPr1be6KkHbp5NU5g-500" value="x" style="edgeLabel;html=1;align=center;verticalAlign=middle;resizable=0;points=[];" vertex="1" connectable="0" parent="gNsDPr1be6KkHbp5NU5g-499">
          <mxGeometry x="0.5192" y="1" relative="1" as="geometry">
            <mxPoint as="offset" />
          </mxGeometry>
        </mxCell>
        <mxCell id="gNsDPr1be6KkHbp5NU5g-501" value="" style="endArrow=classic;html=1;rounded=0;entryX=0.5;entryY=0;entryDx=0;entryDy=0;exitX=0.5;exitY=1;exitDx=0;exitDy=0;" edge="1" parent="gNsDPr1be6KkHbp5NU5g-497" source="gNsDPr1be6KkHbp5NU5g-498" target="gNsDPr1be6KkHbp5NU5g-498">
          <mxGeometry width="50" height="50" relative="1" as="geometry">
            <mxPoint x="140" y="330" as="sourcePoint" />
            <mxPoint x="340" y="280" as="targetPoint" />
          </mxGeometry>
        </mxCell>
        <mxCell id="gNsDPr1be6KkHbp5NU5g-502" value="y" style="edgeLabel;html=1;align=center;verticalAlign=middle;resizable=0;points=[];" vertex="1" connectable="0" parent="gNsDPr1be6KkHbp5NU5g-501">
          <mxGeometry x="0.5003" y="-1" relative="1" as="geometry">
            <mxPoint as="offset" />
          </mxGeometry>
        </mxCell>
        <mxCell id="gNsDPr1be6KkHbp5NU5g-503" value="" style="endArrow=none;dashed=1;html=1;rounded=0;exitX=0.163;exitY=0.992;exitDx=0;exitDy=0;exitPerimeter=0;strokeWidth=1;opacity=10;" edge="1" parent="gNsDPr1be6KkHbp5NU5g-497">
          <mxGeometry width="50" height="50" relative="1" as="geometry">
            <mxPoint x="40.120000000000005" y="238.08000000000004" as="sourcePoint" />
            <mxPoint x="40" as="targetPoint" />
          </mxGeometry>
        </mxCell>
        <mxCell id="gNsDPr1be6KkHbp5NU5g-504" value="" style="endArrow=none;dashed=1;html=1;rounded=0;exitX=0.163;exitY=0.992;exitDx=0;exitDy=0;exitPerimeter=0;strokeWidth=1;opacity=10;" edge="1" parent="gNsDPr1be6KkHbp5NU5g-497">
          <mxGeometry width="50" height="50" relative="1" as="geometry">
            <mxPoint x="80.12" y="238.08000000000004" as="sourcePoint" />
            <mxPoint x="80" as="targetPoint" />
          </mxGeometry>
        </mxCell>
        <mxCell id="gNsDPr1be6KkHbp5NU5g-505" value="" style="endArrow=none;dashed=1;html=1;rounded=0;exitX=0.163;exitY=0.992;exitDx=0;exitDy=0;exitPerimeter=0;strokeWidth=1;opacity=10;" edge="1" parent="gNsDPr1be6KkHbp5NU5g-497">
          <mxGeometry width="50" height="50" relative="1" as="geometry">
            <mxPoint x="160.12" y="238.08000000000004" as="sourcePoint" />
            <mxPoint x="160" as="targetPoint" />
          </mxGeometry>
        </mxCell>
        <mxCell id="gNsDPr1be6KkHbp5NU5g-506" value="" style="endArrow=none;dashed=1;html=1;rounded=0;exitX=0.163;exitY=0.992;exitDx=0;exitDy=0;exitPerimeter=0;strokeWidth=1;opacity=10;" edge="1" parent="gNsDPr1be6KkHbp5NU5g-497">
          <mxGeometry width="50" height="50" relative="1" as="geometry">
            <mxPoint x="200.12" y="238.08000000000004" as="sourcePoint" />
            <mxPoint x="200" as="targetPoint" />
          </mxGeometry>
        </mxCell>
        <mxCell id="gNsDPr1be6KkHbp5NU5g-507" value="" style="endArrow=none;dashed=1;html=1;rounded=0;strokeWidth=1;endSize=6;jumpSize=6;opacity=10;" edge="1" parent="gNsDPr1be6KkHbp5NU5g-497">
          <mxGeometry width="50" height="50" relative="1" as="geometry">
            <mxPoint y="40" as="sourcePoint" />
            <mxPoint x="240" y="40" as="targetPoint" />
          </mxGeometry>
        </mxCell>
        <mxCell id="gNsDPr1be6KkHbp5NU5g-508" value="" style="endArrow=none;dashed=1;html=1;rounded=0;strokeWidth=1;endSize=6;jumpSize=6;opacity=10;" edge="1" parent="gNsDPr1be6KkHbp5NU5g-497">
          <mxGeometry width="50" height="50" relative="1" as="geometry">
            <mxPoint y="80" as="sourcePoint" />
            <mxPoint x="240" y="80" as="targetPoint" />
          </mxGeometry>
        </mxCell>
        <mxCell id="gNsDPr1be6KkHbp5NU5g-509" value="" style="endArrow=none;dashed=1;html=1;rounded=0;strokeWidth=1;endSize=6;jumpSize=6;opacity=10;" edge="1" parent="gNsDPr1be6KkHbp5NU5g-497">
          <mxGeometry width="50" height="50" relative="1" as="geometry">
            <mxPoint y="160" as="sourcePoint" />
            <mxPoint x="240" y="160" as="targetPoint" />
          </mxGeometry>
        </mxCell>
        <mxCell id="gNsDPr1be6KkHbp5NU5g-510" value="" style="endArrow=none;dashed=1;html=1;rounded=0;strokeWidth=1;endSize=6;jumpSize=6;opacity=10;" edge="1" parent="gNsDPr1be6KkHbp5NU5g-497">
          <mxGeometry width="50" height="50" relative="1" as="geometry">
            <mxPoint y="200" as="sourcePoint" />
            <mxPoint x="240" y="200" as="targetPoint" />
          </mxGeometry>
        </mxCell>
        <mxCell id="gNsDPr1be6KkHbp5NU5g-511" value="" style="group" vertex="1" connectable="0" parent="gNsDPr1be6KkHbp5NU5g-497">
          <mxGeometry x="160" y="80" width="80" height="80" as="geometry" />
        </mxCell>
        <mxCell id="gNsDPr1be6KkHbp5NU5g-512" value="" style="endArrow=classic;html=1;rounded=0;strokeColor=#0000FF;" edge="1" parent="gNsDPr1be6KkHbp5NU5g-511">
          <mxGeometry width="50" height="50" relative="1" as="geometry">
            <mxPoint x="40" y="39.860000000000014" as="sourcePoint" />
            <mxPoint x="20" y="39.860000000000014" as="targetPoint" />
          </mxGeometry>
        </mxCell>
        <mxCell id="gNsDPr1be6KkHbp5NU5g-513" value="" style="shape=waypoint;sketch=0;fillStyle=solid;size=6;pointerEvents=1;points=[];fillColor=none;resizable=0;rotatable=0;perimeter=centerPerimeter;snapToPoint=1;strokeColor=#0000FF;rotation=0;" vertex="1" parent="gNsDPr1be6KkHbp5NU5g-511">
          <mxGeometry x="30" y="30" width="20" height="20" as="geometry" />
        </mxCell>
        <mxCell id="gNsDPr1be6KkHbp5NU5g-514" value="&lt;font style=&quot;font-size: 20px;&quot;&gt;1&lt;/font&gt;" style="ellipse;whiteSpace=wrap;html=1;fillColor=none;perimeterSpacing=1;strokeWidth=1;strokeColor=#0000FF;rotation=0;align=right;" vertex="1" parent="gNsDPr1be6KkHbp5NU5g-511">
          <mxGeometry width="80" height="80" as="geometry" />
        </mxCell>
        <mxCell id="gNsDPr1be6KkHbp5NU5g-515" value="" style="group" vertex="1" connectable="0" parent="gNsDPr1be6KkHbp5NU5g-497">
          <mxGeometry x="80" y="120" width="80" height="80" as="geometry" />
        </mxCell>
        <mxCell id="gNsDPr1be6KkHbp5NU5g-516" value="" style="endArrow=classic;html=1;rounded=0;strokeColor=#0000FF;" edge="1" parent="gNsDPr1be6KkHbp5NU5g-515">
          <mxGeometry width="50" height="50" relative="1" as="geometry">
            <mxPoint x="39.85000000000002" y="40" as="sourcePoint" />
            <mxPoint x="40" y="60" as="targetPoint" />
          </mxGeometry>
        </mxCell>
        <mxCell id="gNsDPr1be6KkHbp5NU5g-517" value="" style="shape=waypoint;sketch=0;fillStyle=solid;size=6;pointerEvents=1;points=[];fillColor=none;resizable=0;rotatable=0;perimeter=centerPerimeter;snapToPoint=1;strokeColor=#0000FF;rotation=0;" vertex="1" parent="gNsDPr1be6KkHbp5NU5g-515">
          <mxGeometry x="30" y="30" width="20" height="20" as="geometry" />
        </mxCell>
        <mxCell id="gNsDPr1be6KkHbp5NU5g-518" value="&lt;font style=&quot;font-size: 20px;&quot;&gt;3&lt;/font&gt;" style="ellipse;whiteSpace=wrap;html=1;fillColor=none;perimeterSpacing=1;strokeWidth=1;strokeColor=#0000FF;rotation=0;align=left;" vertex="1" parent="gNsDPr1be6KkHbp5NU5g-515">
          <mxGeometry width="80" height="80" as="geometry" />
        </mxCell>
        <mxCell id="gNsDPr1be6KkHbp5NU5g-519" style="edgeStyle=orthogonalEdgeStyle;rounded=0;orthogonalLoop=1;jettySize=auto;html=1;entryX=1;entryY=0;entryDx=0;entryDy=0;entryPerimeter=0;" edge="1" parent="gNsDPr1be6KkHbp5NU5g-515" source="gNsDPr1be6KkHbp5NU5g-517" target="gNsDPr1be6KkHbp5NU5g-517">
          <mxGeometry relative="1" as="geometry" />
        </mxCell>
        <mxCell id="gNsDPr1be6KkHbp5NU5g-520" value="" style="group" vertex="1" connectable="0" parent="1">
          <mxGeometry x="320" y="3160" width="240" height="240" as="geometry" />
        </mxCell>
        <mxCell id="gNsDPr1be6KkHbp5NU5g-521" value="" style="rounded=0;whiteSpace=wrap;html=1;fillColor=none;" vertex="1" parent="gNsDPr1be6KkHbp5NU5g-520">
          <mxGeometry width="240" height="240" as="geometry" />
        </mxCell>
        <mxCell id="gNsDPr1be6KkHbp5NU5g-522" value="" style="endArrow=classic;html=1;rounded=0;exitX=0;exitY=0.5;exitDx=0;exitDy=0;entryX=1;entryY=0.5;entryDx=0;entryDy=0;" edge="1" parent="gNsDPr1be6KkHbp5NU5g-520" source="gNsDPr1be6KkHbp5NU5g-521" target="gNsDPr1be6KkHbp5NU5g-521">
          <mxGeometry width="50" height="50" relative="1" as="geometry">
            <mxPoint x="890" y="560" as="sourcePoint" />
            <mxPoint x="940" y="510" as="targetPoint" />
          </mxGeometry>
        </mxCell>
        <mxCell id="gNsDPr1be6KkHbp5NU5g-523" value="x" style="edgeLabel;html=1;align=center;verticalAlign=middle;resizable=0;points=[];" vertex="1" connectable="0" parent="gNsDPr1be6KkHbp5NU5g-522">
          <mxGeometry x="0.5192" y="1" relative="1" as="geometry">
            <mxPoint as="offset" />
          </mxGeometry>
        </mxCell>
        <mxCell id="gNsDPr1be6KkHbp5NU5g-524" value="" style="endArrow=classic;html=1;rounded=0;entryX=0.5;entryY=0;entryDx=0;entryDy=0;exitX=0.5;exitY=1;exitDx=0;exitDy=0;" edge="1" parent="gNsDPr1be6KkHbp5NU5g-520" source="gNsDPr1be6KkHbp5NU5g-521" target="gNsDPr1be6KkHbp5NU5g-521">
          <mxGeometry width="50" height="50" relative="1" as="geometry">
            <mxPoint x="140" y="330" as="sourcePoint" />
            <mxPoint x="340" y="280" as="targetPoint" />
          </mxGeometry>
        </mxCell>
        <mxCell id="gNsDPr1be6KkHbp5NU5g-525" value="y" style="edgeLabel;html=1;align=center;verticalAlign=middle;resizable=0;points=[];" vertex="1" connectable="0" parent="gNsDPr1be6KkHbp5NU5g-524">
          <mxGeometry x="0.5003" y="-1" relative="1" as="geometry">
            <mxPoint as="offset" />
          </mxGeometry>
        </mxCell>
        <mxCell id="gNsDPr1be6KkHbp5NU5g-526" value="" style="endArrow=none;dashed=1;html=1;rounded=0;exitX=0.163;exitY=0.992;exitDx=0;exitDy=0;exitPerimeter=0;strokeWidth=1;opacity=10;" edge="1" parent="gNsDPr1be6KkHbp5NU5g-520">
          <mxGeometry width="50" height="50" relative="1" as="geometry">
            <mxPoint x="40.120000000000005" y="238.08000000000004" as="sourcePoint" />
            <mxPoint x="40" as="targetPoint" />
          </mxGeometry>
        </mxCell>
        <mxCell id="gNsDPr1be6KkHbp5NU5g-527" value="" style="endArrow=none;dashed=1;html=1;rounded=0;exitX=0.163;exitY=0.992;exitDx=0;exitDy=0;exitPerimeter=0;strokeWidth=1;opacity=10;" edge="1" parent="gNsDPr1be6KkHbp5NU5g-520">
          <mxGeometry width="50" height="50" relative="1" as="geometry">
            <mxPoint x="80.12" y="238.08000000000004" as="sourcePoint" />
            <mxPoint x="80" as="targetPoint" />
          </mxGeometry>
        </mxCell>
        <mxCell id="gNsDPr1be6KkHbp5NU5g-528" value="" style="endArrow=none;dashed=1;html=1;rounded=0;exitX=0.163;exitY=0.992;exitDx=0;exitDy=0;exitPerimeter=0;strokeWidth=1;opacity=10;" edge="1" parent="gNsDPr1be6KkHbp5NU5g-520">
          <mxGeometry width="50" height="50" relative="1" as="geometry">
            <mxPoint x="160.12" y="238.08000000000004" as="sourcePoint" />
            <mxPoint x="160" as="targetPoint" />
          </mxGeometry>
        </mxCell>
        <mxCell id="gNsDPr1be6KkHbp5NU5g-529" value="" style="endArrow=none;dashed=1;html=1;rounded=0;exitX=0.163;exitY=0.992;exitDx=0;exitDy=0;exitPerimeter=0;strokeWidth=1;opacity=10;" edge="1" parent="gNsDPr1be6KkHbp5NU5g-520">
          <mxGeometry width="50" height="50" relative="1" as="geometry">
            <mxPoint x="200.12" y="238.08000000000004" as="sourcePoint" />
            <mxPoint x="200" as="targetPoint" />
          </mxGeometry>
        </mxCell>
        <mxCell id="gNsDPr1be6KkHbp5NU5g-530" value="" style="endArrow=none;dashed=1;html=1;rounded=0;strokeWidth=1;endSize=6;jumpSize=6;opacity=10;" edge="1" parent="gNsDPr1be6KkHbp5NU5g-520">
          <mxGeometry width="50" height="50" relative="1" as="geometry">
            <mxPoint y="40" as="sourcePoint" />
            <mxPoint x="240" y="40" as="targetPoint" />
          </mxGeometry>
        </mxCell>
        <mxCell id="gNsDPr1be6KkHbp5NU5g-531" value="" style="endArrow=none;dashed=1;html=1;rounded=0;strokeWidth=1;endSize=6;jumpSize=6;opacity=10;" edge="1" parent="gNsDPr1be6KkHbp5NU5g-520">
          <mxGeometry width="50" height="50" relative="1" as="geometry">
            <mxPoint y="80" as="sourcePoint" />
            <mxPoint x="240" y="80" as="targetPoint" />
          </mxGeometry>
        </mxCell>
        <mxCell id="gNsDPr1be6KkHbp5NU5g-532" value="" style="endArrow=none;dashed=1;html=1;rounded=0;strokeWidth=1;endSize=6;jumpSize=6;opacity=10;" edge="1" parent="gNsDPr1be6KkHbp5NU5g-520">
          <mxGeometry width="50" height="50" relative="1" as="geometry">
            <mxPoint y="160" as="sourcePoint" />
            <mxPoint x="240" y="160" as="targetPoint" />
          </mxGeometry>
        </mxCell>
        <mxCell id="gNsDPr1be6KkHbp5NU5g-533" value="" style="endArrow=none;dashed=1;html=1;rounded=0;strokeWidth=1;endSize=6;jumpSize=6;opacity=10;" edge="1" parent="gNsDPr1be6KkHbp5NU5g-520">
          <mxGeometry width="50" height="50" relative="1" as="geometry">
            <mxPoint y="200" as="sourcePoint" />
            <mxPoint x="240" y="200" as="targetPoint" />
          </mxGeometry>
        </mxCell>
        <mxCell id="gNsDPr1be6KkHbp5NU5g-534" value="" style="group" vertex="1" connectable="0" parent="gNsDPr1be6KkHbp5NU5g-520">
          <mxGeometry x="160" y="80" width="80" height="80" as="geometry" />
        </mxCell>
        <mxCell id="gNsDPr1be6KkHbp5NU5g-535" value="" style="endArrow=classic;html=1;rounded=0;strokeColor=#0000FF;" edge="1" parent="gNsDPr1be6KkHbp5NU5g-534">
          <mxGeometry width="50" height="50" relative="1" as="geometry">
            <mxPoint x="40" y="39.860000000000014" as="sourcePoint" />
            <mxPoint x="20" y="39.860000000000014" as="targetPoint" />
          </mxGeometry>
        </mxCell>
        <mxCell id="gNsDPr1be6KkHbp5NU5g-536" value="" style="shape=waypoint;sketch=0;fillStyle=solid;size=6;pointerEvents=1;points=[];fillColor=none;resizable=0;rotatable=0;perimeter=centerPerimeter;snapToPoint=1;strokeColor=#0000FF;rotation=0;" vertex="1" parent="gNsDPr1be6KkHbp5NU5g-534">
          <mxGeometry x="30" y="30" width="20" height="20" as="geometry" />
        </mxCell>
        <mxCell id="gNsDPr1be6KkHbp5NU5g-537" value="&lt;font style=&quot;font-size: 20px;&quot;&gt;1&lt;/font&gt;" style="ellipse;whiteSpace=wrap;html=1;fillColor=none;perimeterSpacing=1;strokeWidth=1;strokeColor=#0000FF;rotation=0;align=right;" vertex="1" parent="gNsDPr1be6KkHbp5NU5g-534">
          <mxGeometry width="80" height="80" as="geometry" />
        </mxCell>
        <mxCell id="gNsDPr1be6KkHbp5NU5g-538" value="" style="group" vertex="1" connectable="0" parent="gNsDPr1be6KkHbp5NU5g-520">
          <mxGeometry x="80" y="160" width="80" height="80" as="geometry" />
        </mxCell>
        <mxCell id="gNsDPr1be6KkHbp5NU5g-539" value="" style="endArrow=classic;html=1;rounded=0;strokeColor=#0000FF;" edge="1" parent="gNsDPr1be6KkHbp5NU5g-538">
          <mxGeometry width="50" height="50" relative="1" as="geometry">
            <mxPoint x="39.85000000000002" y="40" as="sourcePoint" />
            <mxPoint x="40" y="60" as="targetPoint" />
          </mxGeometry>
        </mxCell>
        <mxCell id="gNsDPr1be6KkHbp5NU5g-540" value="" style="shape=waypoint;sketch=0;fillStyle=solid;size=6;pointerEvents=1;points=[];fillColor=none;resizable=0;rotatable=0;perimeter=centerPerimeter;snapToPoint=1;strokeColor=#0000FF;rotation=0;" vertex="1" parent="gNsDPr1be6KkHbp5NU5g-538">
          <mxGeometry x="30" y="30" width="20" height="20" as="geometry" />
        </mxCell>
        <mxCell id="gNsDPr1be6KkHbp5NU5g-541" value="&lt;font style=&quot;font-size: 20px;&quot;&gt;3&lt;/font&gt;" style="ellipse;whiteSpace=wrap;html=1;fillColor=none;perimeterSpacing=1;strokeWidth=1;strokeColor=#0000FF;rotation=0;align=left;" vertex="1" parent="gNsDPr1be6KkHbp5NU5g-538">
          <mxGeometry width="80" height="80" as="geometry" />
        </mxCell>
        <mxCell id="gNsDPr1be6KkHbp5NU5g-542" style="edgeStyle=orthogonalEdgeStyle;rounded=0;orthogonalLoop=1;jettySize=auto;html=1;entryX=1;entryY=0;entryDx=0;entryDy=0;entryPerimeter=0;" edge="1" parent="gNsDPr1be6KkHbp5NU5g-538" source="gNsDPr1be6KkHbp5NU5g-540" target="gNsDPr1be6KkHbp5NU5g-540">
          <mxGeometry relative="1" as="geometry" />
        </mxCell>
        <mxCell id="gNsDPr1be6KkHbp5NU5g-543" value="" style="group" vertex="1" connectable="0" parent="1">
          <mxGeometry x="600" y="3160" width="240" height="240" as="geometry" />
        </mxCell>
        <mxCell id="gNsDPr1be6KkHbp5NU5g-544" value="" style="rounded=0;whiteSpace=wrap;html=1;fillColor=none;" vertex="1" parent="gNsDPr1be6KkHbp5NU5g-543">
          <mxGeometry width="240" height="240" as="geometry" />
        </mxCell>
        <mxCell id="gNsDPr1be6KkHbp5NU5g-545" value="" style="endArrow=classic;html=1;rounded=0;exitX=0;exitY=0.5;exitDx=0;exitDy=0;entryX=1;entryY=0.5;entryDx=0;entryDy=0;" edge="1" parent="gNsDPr1be6KkHbp5NU5g-543" source="gNsDPr1be6KkHbp5NU5g-544" target="gNsDPr1be6KkHbp5NU5g-544">
          <mxGeometry width="50" height="50" relative="1" as="geometry">
            <mxPoint x="890" y="560" as="sourcePoint" />
            <mxPoint x="940" y="510" as="targetPoint" />
          </mxGeometry>
        </mxCell>
        <mxCell id="gNsDPr1be6KkHbp5NU5g-546" value="x" style="edgeLabel;html=1;align=center;verticalAlign=middle;resizable=0;points=[];" vertex="1" connectable="0" parent="gNsDPr1be6KkHbp5NU5g-545">
          <mxGeometry x="0.5192" y="1" relative="1" as="geometry">
            <mxPoint as="offset" />
          </mxGeometry>
        </mxCell>
        <mxCell id="gNsDPr1be6KkHbp5NU5g-547" value="" style="endArrow=classic;html=1;rounded=0;entryX=0.5;entryY=0;entryDx=0;entryDy=0;exitX=0.5;exitY=1;exitDx=0;exitDy=0;" edge="1" parent="gNsDPr1be6KkHbp5NU5g-543" source="gNsDPr1be6KkHbp5NU5g-544" target="gNsDPr1be6KkHbp5NU5g-544">
          <mxGeometry width="50" height="50" relative="1" as="geometry">
            <mxPoint x="140" y="330" as="sourcePoint" />
            <mxPoint x="340" y="280" as="targetPoint" />
          </mxGeometry>
        </mxCell>
        <mxCell id="gNsDPr1be6KkHbp5NU5g-548" value="y" style="edgeLabel;html=1;align=center;verticalAlign=middle;resizable=0;points=[];" vertex="1" connectable="0" parent="gNsDPr1be6KkHbp5NU5g-547">
          <mxGeometry x="0.5003" y="-1" relative="1" as="geometry">
            <mxPoint as="offset" />
          </mxGeometry>
        </mxCell>
        <mxCell id="gNsDPr1be6KkHbp5NU5g-549" value="" style="endArrow=none;dashed=1;html=1;rounded=0;exitX=0.163;exitY=0.992;exitDx=0;exitDy=0;exitPerimeter=0;strokeWidth=1;opacity=10;" edge="1" parent="gNsDPr1be6KkHbp5NU5g-543">
          <mxGeometry width="50" height="50" relative="1" as="geometry">
            <mxPoint x="40.120000000000005" y="238.08000000000004" as="sourcePoint" />
            <mxPoint x="40" as="targetPoint" />
          </mxGeometry>
        </mxCell>
        <mxCell id="gNsDPr1be6KkHbp5NU5g-550" value="" style="endArrow=none;dashed=1;html=1;rounded=0;exitX=0.163;exitY=0.992;exitDx=0;exitDy=0;exitPerimeter=0;strokeWidth=1;opacity=10;" edge="1" parent="gNsDPr1be6KkHbp5NU5g-543">
          <mxGeometry width="50" height="50" relative="1" as="geometry">
            <mxPoint x="80.12" y="238.08000000000004" as="sourcePoint" />
            <mxPoint x="80" as="targetPoint" />
          </mxGeometry>
        </mxCell>
        <mxCell id="gNsDPr1be6KkHbp5NU5g-551" value="" style="endArrow=none;dashed=1;html=1;rounded=0;exitX=0.163;exitY=0.992;exitDx=0;exitDy=0;exitPerimeter=0;strokeWidth=1;opacity=10;" edge="1" parent="gNsDPr1be6KkHbp5NU5g-543">
          <mxGeometry width="50" height="50" relative="1" as="geometry">
            <mxPoint x="160.12" y="238.08000000000004" as="sourcePoint" />
            <mxPoint x="160" as="targetPoint" />
          </mxGeometry>
        </mxCell>
        <mxCell id="gNsDPr1be6KkHbp5NU5g-552" value="" style="endArrow=none;dashed=1;html=1;rounded=0;exitX=0.163;exitY=0.992;exitDx=0;exitDy=0;exitPerimeter=0;strokeWidth=1;opacity=10;" edge="1" parent="gNsDPr1be6KkHbp5NU5g-543">
          <mxGeometry width="50" height="50" relative="1" as="geometry">
            <mxPoint x="200.12" y="238.08000000000004" as="sourcePoint" />
            <mxPoint x="200" as="targetPoint" />
          </mxGeometry>
        </mxCell>
        <mxCell id="gNsDPr1be6KkHbp5NU5g-553" value="" style="endArrow=none;dashed=1;html=1;rounded=0;strokeWidth=1;endSize=6;jumpSize=6;opacity=10;" edge="1" parent="gNsDPr1be6KkHbp5NU5g-543">
          <mxGeometry width="50" height="50" relative="1" as="geometry">
            <mxPoint y="40" as="sourcePoint" />
            <mxPoint x="240" y="40" as="targetPoint" />
          </mxGeometry>
        </mxCell>
        <mxCell id="gNsDPr1be6KkHbp5NU5g-554" value="" style="endArrow=none;dashed=1;html=1;rounded=0;strokeWidth=1;endSize=6;jumpSize=6;opacity=10;" edge="1" parent="gNsDPr1be6KkHbp5NU5g-543">
          <mxGeometry width="50" height="50" relative="1" as="geometry">
            <mxPoint y="80" as="sourcePoint" />
            <mxPoint x="240" y="80" as="targetPoint" />
          </mxGeometry>
        </mxCell>
        <mxCell id="gNsDPr1be6KkHbp5NU5g-555" value="" style="endArrow=none;dashed=1;html=1;rounded=0;strokeWidth=1;endSize=6;jumpSize=6;opacity=10;" edge="1" parent="gNsDPr1be6KkHbp5NU5g-543">
          <mxGeometry width="50" height="50" relative="1" as="geometry">
            <mxPoint y="160" as="sourcePoint" />
            <mxPoint x="240" y="160" as="targetPoint" />
          </mxGeometry>
        </mxCell>
        <mxCell id="gNsDPr1be6KkHbp5NU5g-556" value="" style="endArrow=none;dashed=1;html=1;rounded=0;strokeWidth=1;endSize=6;jumpSize=6;opacity=10;" edge="1" parent="gNsDPr1be6KkHbp5NU5g-543">
          <mxGeometry width="50" height="50" relative="1" as="geometry">
            <mxPoint y="200" as="sourcePoint" />
            <mxPoint x="240" y="200" as="targetPoint" />
          </mxGeometry>
        </mxCell>
        <mxCell id="gNsDPr1be6KkHbp5NU5g-557" value="" style="group" vertex="1" connectable="0" parent="gNsDPr1be6KkHbp5NU5g-543">
          <mxGeometry x="80" y="80" width="80" height="80" as="geometry" />
        </mxCell>
        <mxCell id="gNsDPr1be6KkHbp5NU5g-558" value="" style="endArrow=classic;html=1;rounded=0;strokeColor=#0000FF;" edge="1" parent="gNsDPr1be6KkHbp5NU5g-557">
          <mxGeometry width="50" height="50" relative="1" as="geometry">
            <mxPoint x="40" y="39.860000000000014" as="sourcePoint" />
            <mxPoint x="20" y="39.860000000000014" as="targetPoint" />
          </mxGeometry>
        </mxCell>
        <mxCell id="gNsDPr1be6KkHbp5NU5g-559" value="" style="shape=waypoint;sketch=0;fillStyle=solid;size=6;pointerEvents=1;points=[];fillColor=none;resizable=0;rotatable=0;perimeter=centerPerimeter;snapToPoint=1;strokeColor=#0000FF;rotation=0;" vertex="1" parent="gNsDPr1be6KkHbp5NU5g-557">
          <mxGeometry x="30" y="30" width="20" height="20" as="geometry" />
        </mxCell>
        <mxCell id="gNsDPr1be6KkHbp5NU5g-560" value="&lt;font style=&quot;font-size: 20px;&quot;&gt;1&lt;/font&gt;" style="ellipse;whiteSpace=wrap;html=1;fillColor=none;perimeterSpacing=1;strokeWidth=1;strokeColor=#0000FF;rotation=0;align=right;" vertex="1" parent="gNsDPr1be6KkHbp5NU5g-557">
          <mxGeometry width="80" height="80" as="geometry" />
        </mxCell>
        <mxCell id="gNsDPr1be6KkHbp5NU5g-561" value="" style="group" vertex="1" connectable="0" parent="gNsDPr1be6KkHbp5NU5g-543">
          <mxGeometry x="80" y="160" width="80" height="80" as="geometry" />
        </mxCell>
        <mxCell id="gNsDPr1be6KkHbp5NU5g-562" value="" style="endArrow=classic;html=1;rounded=0;strokeColor=#0000FF;" edge="1" parent="gNsDPr1be6KkHbp5NU5g-561">
          <mxGeometry width="50" height="50" relative="1" as="geometry">
            <mxPoint x="39.85000000000002" y="40" as="sourcePoint" />
            <mxPoint x="40" y="60" as="targetPoint" />
          </mxGeometry>
        </mxCell>
        <mxCell id="gNsDPr1be6KkHbp5NU5g-563" value="" style="shape=waypoint;sketch=0;fillStyle=solid;size=6;pointerEvents=1;points=[];fillColor=none;resizable=0;rotatable=0;perimeter=centerPerimeter;snapToPoint=1;strokeColor=#0000FF;rotation=0;" vertex="1" parent="gNsDPr1be6KkHbp5NU5g-561">
          <mxGeometry x="30" y="30" width="20" height="20" as="geometry" />
        </mxCell>
        <mxCell id="gNsDPr1be6KkHbp5NU5g-564" value="&lt;font style=&quot;font-size: 20px;&quot;&gt;3&lt;/font&gt;" style="ellipse;whiteSpace=wrap;html=1;fillColor=none;perimeterSpacing=1;strokeWidth=1;strokeColor=#0000FF;rotation=0;align=left;" vertex="1" parent="gNsDPr1be6KkHbp5NU5g-561">
          <mxGeometry width="80" height="80" as="geometry" />
        </mxCell>
        <mxCell id="gNsDPr1be6KkHbp5NU5g-565" style="edgeStyle=orthogonalEdgeStyle;rounded=0;orthogonalLoop=1;jettySize=auto;html=1;entryX=1;entryY=0;entryDx=0;entryDy=0;entryPerimeter=0;" edge="1" parent="gNsDPr1be6KkHbp5NU5g-561" source="gNsDPr1be6KkHbp5NU5g-563" target="gNsDPr1be6KkHbp5NU5g-563">
          <mxGeometry relative="1" as="geometry" />
        </mxCell>
      </root>
    </mxGraphModel>
  </diagram>
</mxfile>
